<?xml version="1.0" encoding="UTF-8" standalone="no"?>
<!-- Created with Inkscape (http://www.inkscape.org/) -->

<svg
   xmlns:dc="http://purl.org/dc/elements/1.1/"
   xmlns:cc="http://creativecommons.org/ns#"
   xmlns:rdf="http://www.w3.org/1999/02/22-rdf-syntax-ns#"
   xmlns:svg="http://www.w3.org/2000/svg"
   xmlns="http://www.w3.org/2000/svg"
   xmlns:sodipodi="http://sodipodi.sourceforge.net/DTD/sodipodi-0.dtd"
   xmlns:inkscape="http://www.inkscape.org/namespaces/inkscape"
   version="1.1"
   id="svg2"
   width="175"
   height="135"
   viewBox="0 0 175 135"
   sodipodi:docname="controls.svg"
   inkscape:version="0.92.3 (2405546, 2018-03-11)"
   inkscape:export-filename="/home/colek/Documents/Programming/daud/Game.Engine/wwwroot/img/controls.png"
   inkscape:export-xdpi="96"
   inkscape:export-ydpi="96">
  <metadata
     id="metadata8">
    <rdf:RDF>
      <cc:Work
         rdf:about="">
        <dc:format>image/svg+xml</dc:format>
        <dc:type
           rdf:resource="http://purl.org/dc/dcmitype/StillImage" />
        <dc:title></dc:title>
      </cc:Work>
    </rdf:RDF>
  </metadata>
  <defs
     id="defs6" />
  <sodipodi:namedview
     pagecolor="#ffffff"
     bordercolor="#666666"
     borderopacity="1"
     objecttolerance="10"
     gridtolerance="10"
     guidetolerance="10"
     inkscape:pageopacity="0"
     inkscape:pageshadow="2"
     inkscape:window-width="1920"
     inkscape:window-height="1020"
     id="namedview4"
     showgrid="false"
     inkscape:zoom="4.3056219"
     inkscape:cx="97.117084"
     inkscape:cy="67.745824"
     inkscape:window-x="0"
     inkscape:window-y="30"
     inkscape:window-maximized="1"
     inkscape:current-layer="svg2"
     showguides="false" />
  <rect
     style="opacity:1;fill:#7f7f7f;fill-opacity:0.49803922;stroke:none;stroke-width:2;stroke-linejoin:round;stroke-miterlimit:4;stroke-dasharray:none;stroke-opacity:1;paint-order:normal"
     id="rect1085-7"
     width="80"
     height="80"
     x="90"
     y="50"
     ry="5" />
  <text
     id="text1045-7-5-7"
     y="65.926689"
     x="108.54662"
     style="font-style:normal;font-weight:normal;font-size:40px;line-height:1.25;font-family:sans-serif;letter-spacing:0px;word-spacing:0px;fill:#fbfcff;fill-opacity:1;stroke:none"
     xml:space="preserve"><tspan
       style="font-size:16px;fill:#fbfcff;fill-opacity:1"
       y="65.926689"
       x="108.54662"
       id="tspan1043-8-9-9"
       sodipodi:role="line">Dash!</tspan></text>
  <g
     id="g1111"
     transform="translate(-1.1712981,-15.394078)">
    <path
       style="fill:#3650eb;fill-opacity:1;stroke:none"
       d="m 140.82344,87.994665 c -0.56667,0 -1.04922,0.19961 -1.44922,0.59961 -0.36667,0.4 -0.55078,0.88256 -0.55078,1.44922 v 18.800775 c 0,3.86667 1.35078,7.14961 4.05078,9.84961 2.73333,2.73334 6.03177,4.09961 9.89844,4.09961 h 0.0508 c 3.86666,0 7.14961,-1.36627 9.84961,-4.09961 2.73333,-2.7 4.0996,-5.98294 4.0996,-9.84961 h 0.0508 V 89.994665 c 0,-0.53333 -0.19961,-1.00039 -0.5996,-1.40039 -0.4,-0.4 -0.86706,-0.59961 -1.4004,-0.59961 z m 1,3 h 10.69922 c -1.6,0.0333 -2.96628,0.68256 -4.09961,1.94922 -1.06667,1.16667 -1.61706,2.56784 -1.65039,4.20117 v 3.699215 h -4.94922 z m 10.94922,2.94922 c 0.83333,0 1.53489,0.31784 2.10156,0.95117 l 0.79883,1.34961 0.0996,0.90039 v 7.449215 c 0,0.9 -0.29844,1.66745 -0.89844,2.30078 -0.56667,0.66667 -1.26823,1 -2.10156,1 -0.83334,0 -1.54844,-0.33333 -2.14844,-1 -0.56667,-0.63333 -0.85156,-1.40078 -0.85156,-2.30078 v -7.449215 l 0.15039,-0.90039 c 0.1,-0.5 0.3345,-0.94961 0.70117,-1.34961 0.6,-0.63333 1.3151,-0.95117 2.14844,-0.95117 z"
       id="path935-6-7-5-5"
       inkscape:connector-curvature="0" />
    <path
       style="fill:#f1f1f1;fill-opacity:1;stroke:none"
       d="m 164.82347,87.994665 c 0.56667,0 1.04922,0.19961 1.44922,0.59961 0.36667,0.4 0.55078,0.88256 0.55078,1.44922 v 18.800775 c 0,3.86667 -1.35078,7.14961 -4.05078,9.84961 -2.73333,2.73334 -6.03177,4.09961 -9.89844,4.09961 h -0.0508 c -3.86666,0 -7.14961,-1.36627 -9.84961,-4.09961 -2.73333,-2.7 -4.0996,-5.98294 -4.0996,-9.84961 h -0.0508 V 89.994665 c 0,-0.53333 0.19961,-1.00039 0.5996,-1.40039 0.4,-0.4 0.86706,-0.59961 1.4004,-0.59961 z m -1,3 h -10.69922 c 1.6,0.0333 2.96628,0.68256 4.09961,1.94922 1.06667,1.16667 1.61706,2.56784 1.65039,4.20117 v 3.699215 h 4.94922 z m -10.94922,2.94922 c -0.83333,0 -1.53489,0.31784 -2.10156,0.95117 l -0.79883,1.34961 -0.0996,0.90039 v 7.449215 c 0,0.9 0.29844,1.66745 0.89844,2.30078 0.56667,0.66667 1.26823,1 2.10156,1 0.83334,0 1.54844,-0.33333 2.14844,-1 0.56667,-0.63333 0.85156,-1.40078 0.85156,-2.30078 v -7.449215 l -0.15039,-0.90039 c -0.1,-0.5 -0.3345,-0.94961 -0.70117,-1.34961 -0.6,-0.63333 -1.3151,-0.95117 -2.14844,-0.95117 z"
       id="path935-6-7-6"
       inkscape:connector-curvature="0" />
  </g>
  <g
     id="g1163"
     transform="matrix(0.75,0,0,0.75,28.503668,10.412281)">
    <rect
       style="opacity:1;fill:#f1f1f1;fill-opacity:1;stroke:none;stroke-width:2;stroke-linejoin:round;stroke-miterlimit:4;stroke-dasharray:none;stroke-opacity:1;paint-order:normal"
       id="rect1041"
       width="40"
       height="40"
       x="87.792213"
       y="86.116959"
       ry="5" />
    <text
       xml:space="preserve"
       style="font-style:normal;font-weight:normal;font-size:40px;line-height:1.25;font-family:sans-serif;letter-spacing:0px;word-spacing:0px;fill:#3650eb;fill-opacity:1;stroke:none"
       x="100.41888"
       y="115.63696"
       id="text1045"><tspan
         sodipodi:role="line"
         id="tspan1043"
         x="100.41888"
         y="115.63696"
         style="font-size:26.66666603px">S</tspan></text>
  </g>
  <g
     id="g1119"
     transform="translate(0,-4)">
    <rect
       ry="5"
       y="54"
       x="5"
       height="80"
       width="80"
       id="rect1085"
       style="opacity:1;fill:#7f7f7f;fill-opacity:0.49803922;stroke:none;stroke-width:2;stroke-linejoin:round;stroke-miterlimit:4;stroke-dasharray:none;stroke-opacity:1;paint-order:normal" />
    <g
       transform="translate(3.309244,2.215564)"
       id="g1107">
      <path
         inkscape:connector-curvature="0"
         id="path935-6-7-5"
         d="m 53.690771,74.385022 c 0.56667,0 1.04922,0.19961 1.44922,0.59961 0.36667,0.4 0.55078,0.88256 0.55078,1.44922 v 18.80078 c 0,3.86667 -1.35078,7.149608 -4.05078,9.849608 -2.73333,2.73334 -6.03177,4.09961 -9.89844,4.09961 h -0.0508 c -3.86666,0 -7.14961,-1.36627 -9.84961,-4.09961 -2.73333,-2.7 -4.0996,-5.982938 -4.0996,-9.849608 h -0.0508 v -18.84961 c 0,-0.53333 0.19961,-1.00039 0.5996,-1.40039 0.4,-0.4 0.86706,-0.59961 1.4004,-0.59961 z m -1,3 h -10.69922 c 1.6,0.0333 2.96628,0.68256 4.09961,1.94922 1.06667,1.16667 1.61706,2.56784 1.65039,4.20117 v 3.69922 h 4.94922 z m -10.94922,2.94922 c -0.83333,0 -1.53489,0.31784 -2.10156,0.95117 l -0.79883,1.34961 -0.0996,0.90039 v 7.44922 c 0,0.9 0.29844,1.66745 0.89844,2.30078 0.56667,0.66667 1.26823,1 2.10156,1 0.83334,0 1.54844,-0.33333 2.14844,-1 0.56667,-0.63333 0.85156,-1.40078 0.85156,-2.30078 v -7.44922 l -0.15039,-0.90039 c -0.1,-0.5 -0.3345,-0.94961 -0.70117,-1.34961 -0.6,-0.63333 -1.3151,-0.95117 -2.14844,-0.95117 z"
         style="fill:#3650eb;fill-opacity:1;stroke:none" />
      <path
         inkscape:connector-curvature="0"
         id="path935-6-7"
         d="m 29.690741,74.385022 c -0.56667,0 -1.04922,0.19961 -1.44922,0.59961 -0.36667,0.4 -0.55078,0.88256 -0.55078,1.44922 v 18.80078 c 0,3.86667 1.35078,7.149608 4.05078,9.849608 2.73333,2.73334 6.03177,4.09961 9.89844,4.09961 h 0.0508 c 3.86666,0 7.14961,-1.36627 9.84961,-4.09961 2.73333,-2.7 4.0996,-5.982938 4.0996,-9.849608 h 0.0508 v -18.84961 c 0,-0.53333 -0.19961,-1.00039 -0.5996,-1.40039 -0.4,-0.4 -0.86706,-0.59961 -1.4004,-0.59961 z m 1,3 h 10.69922 c -1.6,0.0333 -2.96628,0.68256 -4.09961,1.94922 -1.06667,1.16667 -1.61706,2.56784 -1.65039,4.20117 v 3.69922 h -4.94922 z m 10.94922,2.94922 c 0.83333,0 1.53489,0.31784 2.10156,0.95117 l 0.79883,1.34961 0.0996,0.90039 v 7.44922 c 0,0.9 -0.29844,1.66745 -0.89844,2.30078 -0.56667,0.66667 -1.26823,1 -2.10156,1 -0.83334,0 -1.54844,-0.33333 -2.14844,-1 -0.56667,-0.63333 -0.85156,-1.40078 -0.85156,-2.30078 v -7.44922 l 0.15039,-0.90039 c 0.1,-0.5 0.3345,-0.94961 0.70117,-1.34961 0.6,-0.63333 1.3151,-0.95117 2.14844,-0.95117 z"
         style="fill:#f1f1f1;fill-opacity:1;stroke:none" />
    </g>
    <text
       xml:space="preserve"
       style="font-style:normal;font-weight:normal;font-size:40px;line-height:1.25;font-family:sans-serif;letter-spacing:0px;word-spacing:0px;fill:#fbfcff;fill-opacity:1;stroke:none"
       x="22.833124"
       y="69.926689"
       id="text1045-7-5"><tspan
         sodipodi:role="line"
         id="tspan1043-8-9"
         x="22.833124"
         y="69.926689"
         style="font-size:16px;fill:#fbfcff;fill-opacity:1">Shoot</tspan></text>
  </g>
  <rect
     style="opacity:1;fill:#7f7f7f;fill-opacity:0.49803922;stroke:none;stroke-width:2;stroke-linejoin:round;stroke-miterlimit:4;stroke-dasharray:none;stroke-opacity:1;paint-order:normal"
     id="rect1085-7-6"
     width="165"
     height="40"
     x="5"
     y="5"
     ry="5" />
  <text
     id="text1045-7-5-7-5"
     y="30.967999"
     x="55.727501"
     style="font-style:normal;font-weight:normal;font-size:40px;line-height:1.25;font-family:sans-serif;letter-spacing:0px;word-spacing:0px;fill:#fbfcff;fill-opacity:1;stroke:none"
     xml:space="preserve"><tspan
       style="font-size:16px;fill:#fbfcff;fill-opacity:1"
       y="30.967999"
       x="55.727501"
       id="tspan1043-8-9-9-0"
       sodipodi:role="line">Controls</tspan></text>
  <path
     style="fill:none;fill-opacity:0.49803922;stroke:#f1f1f1;stroke-width:1px;stroke-linecap:butt;stroke-linejoin:miter;stroke-opacity:1"
     d="m 133.48498,75.737793 -6.96996,28.524417"
     id="path1298"
     inkscape:connector-curvature="0"
     sodipodi:nodetypes="cc" />
</svg>
