<?xml version="1.0" encoding="UTF-8" standalone="no"?>
<!-- Created with Inkscape (http://www.inkscape.org/) -->

<svg
   xmlns:dc="http://purl.org/dc/elements/1.1/"
   xmlns:cc="http://creativecommons.org/ns#"
   xmlns:rdf="http://www.w3.org/1999/02/22-rdf-syntax-ns#"
   xmlns:svg="http://www.w3.org/2000/svg"
   xmlns="http://www.w3.org/2000/svg"
   xmlns:sodipodi="http://sodipodi.sourceforge.net/DTD/sodipodi-0.dtd"
   xmlns:inkscape="http://www.inkscape.org/namespaces/inkscape"
   version="1.1"
   id="svg2"
   width="128"
   height="128"
   viewBox="0 0 128 128"
   sodipodi:docname="ship_cyan.svg"
   inkscape:version="0.92.3 (2405546, 2018-03-11)">
  <metadata
     id="metadata8">
    <rdf:RDF>
      <cc:Work
         rdf:about="">
        <dc:format>image/svg+xml</dc:format>
        <dc:type
           rdf:resource="http://purl.org/dc/dcmitype/StillImage" />
        <dc:title></dc:title>
      </cc:Work>
    </rdf:RDF>
  </metadata>
  <defs
     id="defs6" />
  <sodipodi:namedview
     pagecolor="#ffffff"
     bordercolor="#666666"
     borderopacity="1"
     objecttolerance="10"
     gridtolerance="10"
     guidetolerance="10"
     inkscape:pageopacity="0"
     inkscape:pageshadow="2"
     inkscape:window-width="1920"
     inkscape:window-height="999"
     id="namedview4"
     showgrid="false"
     inkscape:zoom="1.84375"
     inkscape:cx="64"
     inkscape:cy="64"
     inkscape:window-x="0"
     inkscape:window-y="0"
     inkscape:window-maximized="1"
     inkscape:current-layer="svg2" />
  <g
     transform="rotate(90,301.0875,22.3625)"
     id="g14033">
    <path
       d="m 344.75,222 h 0.7 q 0.6,0 1.1,0.35 l 0.75,0.85 5.7,12.7 -1.7,1.05 -5.85,-12.95 h -0.7 v -2 m 20.3,65.55 -8.75,8.8 q -0.6,0.55 -1.45,0.55 H 330.6 q -0.85,0 -1.4,-0.55 l -8.8,-8.8 0.85,-2 9.35,9.35 h 24.25 l 9.35,-9.35 0.85,2 m -32.6,-51.65 5.75,-12.7 q 0.2,-0.55 0.75,-0.85 Q 339.4,222 340,222 h 0.7 v 2 H 340 l -5.85,12.95 -0.25,0.35 -1.45,-1.4"
       id="path8517"
       inkscape:connector-curvature="0"
       style="fill:#cbcbcb;stroke:none" />
    <path
       d="m 332.45,235.9 1.45,1.4 -7,8.25 -27.3,32.25 -0.6,-2.35 33.45,-39.55 m 18.85,1.05 1.7,-1.05 33.4,39.4 -0.55,2.5 -27.3,-32.25 -7.25,-8.6"
       id="path8519"
       inkscape:connector-curvature="0"
       style="fill:#8ea8ad;stroke:none" />
    <path
       d="m 351.3,236.95 7.25,8.6 16.15,33.65 -3.6,3.6 h -4.15 l 3.45,-3.45 -19.1,-42.4 m -24.4,8.6 7,-8.25 0.25,-0.35 -19.1,42.4 3.45,3.45 h -4.15 l -3.6,-3.6 16.15,-33.65"
       id="path8521"
       inkscape:connector-curvature="0"
       style="fill:#bdd6db;stroke:none" />
    <path
       d="m 344.75,224 h 0.7 l 5.85,12.95 19.1,42.4 -3.45,3.45 -2.75,2.75 -9.35,9.35 H 330.6 l -9.35,-9.35 -2.75,-2.75 -3.45,-3.45 19.1,-42.4 L 340,224 h 0.7 l -16.45,51.95 6.5,11.75 H 354.7 L 361.2,275.95 344.75,224"
       id="path8523"
       inkscape:connector-curvature="0"
       style="fill:#f2f2f2;stroke:none" />
    <path
       d="m 344.75,224 16.45,51.95 -6.5,11.75 H 330.75 L 324.25,275.95 340.7,224 h 4.05 m -10.7,31.05 -0.35,1 h 18.05 l -0.3,-1 -6.4,-22.25 h -4.6 L 334,255.05 h 0.05 m 50.15,31.7 0.25,-1.2 0.5,-2.75 0.9,-5 3.6,4.25 v 4.7 h -5.25 m -84.6,-8.95 0.9,5 0.5,2.75 0.25,1.2 H 296 v -4.7 l 3.6,-4.25"
       id="path8525"
       inkscape:connector-curvature="0"
       style="fill:#36bbf5;stroke:none" />
    <path
       d="m 299.6,277.8 -3.6,4.25 v 4.7 h 5.25 l 0.4,1.95 -0.4,0.05 H 296 q -0.85,0 -1.4,-0.55 -0.6,-0.6 -0.6,-1.45 v -4.7 q 0,-0.75 0.5,-1.3 l 4.5,-5.3 0.6,2.35 M 344.75,222 v 2 h -4.05 v -2 h 4.05 m 41.65,53.3 4.6,5.45 q 0.45,0.55 0.45,1.3 v 4.7 q 0,0.85 -0.55,1.45 -0.6,0.55 -1.45,0.55 h -5.25 -0.3 l 0.3,-2 h 5.25 v -4.7 l -3.6,-4.25 0.55,-2.5"
       id="path8527"
       inkscape:connector-curvature="0"
       style="fill:#1884b4;stroke:none" />
    <path
       d="m 351.45,255.05 -6.4,-20.25 h -4.6 l -6.4,20.25 H 334 l 6.45,-22.25 h 4.6 l 6.4,22.25"
       id="path8529"
       inkscape:connector-curvature="0"
       style="fill:#8ed9fa;stroke:none" />
    <path
       d="m 351.45,255.05 0.3,1 H 333.7 l 0.35,-1 6.4,-20.25 h 4.6 l 6.4,20.25"
       id="path8531"
       inkscape:connector-curvature="0"
       style="fill:#4a3c55;stroke:none" />
    <path
       d="m 366.95,282.8 h 4.15 l -2.75,2.75 h -4.15 l 2.75,-2.75 m -52.6,0 h 4.15 l 2.75,2.75 h -4.15 l -2.75,-2.75"
       id="path8533"
       inkscape:connector-curvature="0"
       style="fill:#ecbd02;stroke:none" />
    <path
       d="m 383.9,288.75 -0.8,-0.35 -0.7,-0.85 h -17.35 l -0.85,-2 h 4.15 16.1 l -0.25,1.2 -0.3,2 m -63.5,-1.2 h -17.3 l -0.75,0.85 -0.7,0.3 -0.4,-1.95 -0.25,-1.2 h 16.1 4.15 l -0.85,2"
       id="path8535"
       inkscape:connector-curvature="0"
       style="fill:#bf9900;stroke:none" />
    <path
       d="m 384.45,285.55 h -16.1 l 2.75,-2.75 h 13.85 l -0.5,2.75 M 300.5,282.8 h 13.85 l 2.75,2.75 H 301 l -0.5,-2.75"
       id="path8537"
       inkscape:connector-curvature="0"
       style="fill:#ffcc00;stroke:none" />
    <path
       d="m 300.5,282.8 -0.9,-5 27.3,-32.25 -16.15,33.65 3.6,3.6 H 300.5 m 70.6,0 3.6,-3.6 -16.15,-33.65 27.3,32.25 -0.9,5 H 371.1"
       id="path8539"
       inkscape:connector-curvature="0"
       style="fill:#d3e1e7;stroke:none" />
  </g>
</svg>
