{
  "asset": {
    "generator": "Khronos glTF Blender I/O v1.7.17",
    "version": "2.0"
  },
  "scene": 0,
  "scenes": [
    {
      "extras": {
        "blenderkitUI": {
          "assetbar_on": 0,
          "turn_off": 0,
          "asset_type": 0,
          "dragging": 0,
          "margin": 0,
          "thumb_size": 96,
          "bar_x": 78,
          "bar_end": 101,
          "bar_width": 582,
          "wcount": 5,
          "hcount": 1,
          "bar_height": 96,
          "bar_y": 727,
          "reports_y": 531,
          "reports_x": 78,
          "rating_x": 78,
          "rating_y": 631,
          "mouse_x": 293,
          "mouse_y": 786,
          "has_hit": 0,
          "active_index": -3,
          "draw_drag_image": 0,
          "draw_snapped_bounds": 0,
          "draw_tooltip": 0,
          "drawoffset": 35,
          "tooltip": "",
          "drag_init": 0,
          "scrolloffset": 5
        },
        "MM": {
          "revision": "9dea2e13ac59189c013df8ee84a5bd205c4faf6d"
        },
        "blenderkit_models": {
          "is_searching": 0,
          "report": "Found 5886 results. ",
          "search_error": 0
        },
        "animated_render_border": {},
        "maplus_data": {},
        "eeveeMotionBlur_vars": {},
        "texToolsSettings": {
          "bake_color_space": 0,
          "bake_sampling": 2
        },
        "scatter_properties": {},
        "uuid": "62ed11e0-1b44-4fb5-b6d2-ce0a66303457",
        "assets reported": {},
        "uvp2_props": {},
        "blenderkit_HDR": {
          "is_searching": 1,
          "report": "BlenderKit searching...."
        },
        "blenderkit_mat": {
          "is_searching": 0,
          "report": "Found 2199 results. ",
          "search_error": 0
        },
        "blenderkit": {},
        "assets used": {},
        "bsurfaces": {
          "SURFSK_mesh": {},
          "SURFSK_object_with_retopology": {}
        },
        "mi_settings": {},
        "mi_extrude_settings": {},
        "mi_cur_surfs_settings": {},
        "mi_ldeformer_settings": {},
        "mi_curguide_settings": {},
        "mi_cur_stretch_settings": {},
        "by_tool": {},
        "projectile_settings": {},
        "polysweeper": {
          "profile_OBJ": {}
        },
        "target_object": {},
        "add_scene_object": {},
        "retopo_object": {},
        "fluentProp": {
          "corner": 0,
          "bevel_resolution": 32,
          "prism_segments": 64,
          "width": 0.003000000026077032
        },
        "tesselator_addon_settings": {
          "resolution": 92.72999572753906
        },
        "sid_settings": {
          "denoise_render_status": {
            "is_rendering": 0
          },
          "temporal_denoiser_status": {
            "is_denoising": 0
          }
        },
        "TT_bake_mode": 12,
        "stored_views": {},
        "id_tech_3_settings": {},
        "BakeLabProps": {
          "save_or_pack": 0,
          "save_path": "C:\\Users\\shio\\Documents\\blender\\daud.io\\models\\partycity\\lightmaps\\",
          "bake_state": 0,
          "baking_map_index": 1,
          "baking_obj_index": 1,
          "baking_map_count": 1,
          "baking_obj_count": 1,
          "baking_obj_name": "edge.001",
          "baking_map_type": "Combined",
          "baking_map_name": "edge.001_lm.002",
          "baking_map_size": "1024x1024 (2X)",
          "show_file_settings": 0,
          "anti_alias": 2,
          "show_map_settings": 0,
          "show_bake_settings": 0
        },
        "lm_show_all_lights": 0,
        "BakeLabMaps": [
          {
            "type": 12,
            "width": 1024,
            "height": 1024,
            "image_scale": 1,
            "float_depth": 0,
            "file_format": 0,
            "png_channels": 1,
            "png_depth": 0,
            "png_compression": 15,
            "jpg_channels": 1,
            "jpg_quality": 90,
            "exr_channels": 0,
            "exr_depth": 1,
            "exr_codec_32": 2,
            "exr_codec_16": 2,
            "img_name": "*_lm",
            "samples": 500,
            "target_width": 1024,
            "target_height": 1024,
            "final_aa": 2
          }
        ],
        "BakeLabMapIndex": 0,
        "BakeLab_Data": [],
        "uv_toolkit": {}
      },
      "name": "Scene.001",
      "nodes": [
        0,
        1,
        2,
        3,
        4,
        5
      ]
    }
  ],
  "nodes": [
    {
      "extras": {
        "MM": {},
        "hops": {},
        "alpha": 0.5
      },
      "mesh": 0,
      "name": "city.005"
    },
    {
      "extras": {
        "MM": {},
        "hops": {}
      },
      "mesh": 1,
      "name": "poles.002"
    },
    {
      "extras": {
        "MM": {},
        "hops": {},
        "physics": "false"
      },
      "mesh": 2,
      "name": "Top.001"
    },
    {
      "extras": {
        "MM": {},
        "hops": {},
        "alpha": 0.5,
        "physics": "false"
      },
      "mesh": 3,
      "name": "city.006",
      "translation": [
        516.3533325195312,
        126.25584411621094,
        -25.8375244140625
      ]
    },
    {
      "extras": {
        "MM": {},
        "hops": {},
        "physics": "false"
      },
      "mesh": 4,
      "name": "floor.001"
    },
    {
      "extras": {
        "MM": {},
        "hops": {}
      },
      "mesh": 5,
      "name": "edge.001"
    }
  ],
  "materials": [
    {
      "doubleSided": true,
      "emissiveFactor": [
        1.0,
        1.0,
        1.0
      ],
      "emissiveTexture": {
        "index": 0
      },
      "name": "city.005_BAKED",
      "pbrMetallicRoughness": { "baseColorFactor": [0,0,0,1] }
    },
    {
      "doubleSided": true,
      "emissiveFactor": [
        1.0,
        1.0,
        1.0
      ],
      "emissiveTexture": {
        "index": 1
      },
      "name": "poles.002_BAKED",
      "pbrMetallicRoughness": { "baseColorFactor": [0,0,0,1] }
    },
    {
      "doubleSided": true,
      "emissiveFactor": [
        1.0,
        1.0,
        1.0
      ],
      "emissiveTexture": {
        "index": 2
      },
      "name": "Top.001_BAKED",
      "pbrMetallicRoughness": { "baseColorFactor": [0,0,0,1] }
    },
    {
      "doubleSided": true,
      "emissiveFactor": [
        1.0,
        1.0,
        1.0
      ],
      "emissiveTexture": {
        "index": 3
      },
      "name": "city.006_BAKED",
      "pbrMetallicRoughness": { "baseColorFactor": [0,0,0,1] }
    },
    {
      "doubleSided": true,
      "emissiveFactor": [
        1.0,
        1.0,
        1.0
      ],
      "emissiveTexture": {
        "index": 4
      },
      "name": "floor.001_BAKED",
      "pbrMetallicRoughness": { "baseColorFactor": [0,0,0,1] }
    },
    {
      "doubleSided": true,
      "emissiveFactor": [
        1.0,
        1.0,
        1.0
      ],
      "emissiveTexture": {
        "index": 5
      },
      "name": "edge.001_BAKED.001",
      "pbrMetallicRoughness": { "baseColorFactor": [0,0,0,1] }
    }
  ],
  "meshes": [
    {
      "name": "Cube.013",
      "primitives": [
        {
          "attributes": {
            "POSITION": 0,
            "NORMAL": 1,
            "TEXCOORD_0": 2
          },
          "indices": 3,
          "material": 0
        }
      ]
    },
    {
      "name": "Cube.016",
      "primitives": [
        {
          "attributes": {
            "POSITION": 4,
            "NORMAL": 5,
            "TEXCOORD_0": 6
          },
          "indices": 7,
          "material": 1
        }
      ]
    },
    {
      "name": "Cube.019",
      "primitives": [
        {
          "attributes": {
            "POSITION": 8,
            "NORMAL": 9,
            "TEXCOORD_0": 10
          },
          "indices": 11,
          "material": 2
        },
        {
          "attributes": {
            "POSITION": 12,
            "NORMAL": 13,
            "TEXCOORD_0": 14
          },
          "indices": 15,
          "material": 2
        }
      ]
    },
    {
      "name": "Cube.021",
      "primitives": [
        {
          "attributes": {
            "POSITION": 16,
            "NORMAL": 17,
            "TEXCOORD_0": 18
          },
          "indices": 19,
          "material": 3
        }
      ]
    },
    {
      "name": "Cube.001",
      "primitives": [
        {
          "attributes": {
            "POSITION": 20,
            "NORMAL": 21,
            "TEXCOORD_0": 22
          },
          "indices": 23,
          "material": 4
        }
      ]
    },
    {
      "name": "Cube.005",
      "primitives": [
        {
          "attributes": {
            "POSITION": 24,
            "NORMAL": 25,
            "TEXCOORD_0": 26
          },
          "indices": 27,
          "material": 5
        }
      ]
    }
  ],
  "textures": [
    {
      "sampler": 0,
      "source": 0
    },
    {
      "sampler": 0,
      "source": 1
    },
    {
      "sampler": 0,
      "source": 2
    },
    {
      "sampler": 0,
      "source": 3
    },
    {
      "sampler": 0,
      "source": 4
    },
    {
      "sampler": 0,
      "source": 5
    }
  ],
  "images": [
    {
      "name": "city",
      "uri": "partycity_img0.png"
    },
    {
      "name": "poles",
      "uri": "partycity_img1.png"
    },
    {
      "name": "Top.001_lm",
      "uri": "partycity_img2.png"
    },
    {
      "name": "city.006_lm",
      "uri": "partycity_img3.png"
    },
    {
      "name": "floor",
      "uri": "partycity_img4.png"
    },
    {
      "name": "edge.001_lm",
      "uri": "partycity_img5.png"
    }
  ],
  "accessors": [
    {
      "bufferView": 0,
      "componentType": 5126,
      "count": 3372,
      "max": [
        972.784423828125,
        192.63888549804688,
        931.39111328125
      ],
      "min": [
        -937.5985717773438,
        -4.76837158203125e-7,
        -969.0281372070312
      ],
      "type": "VEC3"
    },
    {
      "bufferView": 1,
      "componentType": 5126,
      "count": 3372,
      "type": "VEC3"
    },
    {
      "bufferView": 2,
      "componentType": 5126,
      "count": 3372,
      "type": "VEC2"
    },
    {
      "bufferView": 3,
      "componentType": 5123,
      "count": 5058,
      "type": "SCALAR"
    },
    {
      "bufferView": 4,
      "componentType": 5126,
      "count": 2304,
      "max": [
        301.1893615722656,
        233.42453002929688,
        945.1148681640625
      ],
      "min": [
        -839.166015625,
        -4.650782585144043,
        -798.4991455078125
      ],
      "type": "VEC3"
    },
    {
      "bufferView": 5,
      "componentType": 5126,
      "count": 2304,
      "type": "VEC3"
    },
    {
      "bufferView": 6,
      "componentType": 5126,
      "count": 2304,
      "type": "VEC2"
    },
    {
      "bufferView": 7,
      "componentType": 5123,
      "count": 3456,
      "type": "SCALAR"
    },
    {
      "bufferView": 8,
      "componentType": 5126,
      "count": 1279,
      "max": [
        972.784423828125,
        192.63888549804688,
        931.39111328125
      ],
      "min": [
        -937.5985717773438,
        57.05164337158203,
        -969.0281372070312
      ],
      "type": "VEC3"
    },
    {
      "bufferView": 9,
      "componentType": 5126,
      "count": 1279,
      "type": "VEC3"
    },
    {
      "bufferView": 10,
      "componentType": 5126,
      "count": 1279,
      "type": "VEC2"
    },
    {
      "bufferView": 11,
      "componentType": 5123,
      "count": 2043,
      "type": "SCALAR"
    },
    {
      "bufferView": 12,
      "componentType": 5126,
      "count": 2688,
      "max": [
        856.438720703125,
        299.63671875,
        945.1148681640625
      ],
      "min": [
        -839.166015625,
        33.112762451171875,
        -798.4991455078125
      ],
      "type": "VEC3"
    },
    {
      "bufferView": 13,
      "componentType": 5126,
      "count": 2688,
      "type": "VEC3"
    },
    {
      "bufferView": 14,
      "componentType": 5126,
      "count": 2688,
      "type": "VEC2"
    },
    {
      "bufferView": 15,
      "componentType": 5123,
      "count": 5712,
      "type": "SCALAR"
    },
    {
      "bufferView": 16,
      "componentType": 5126,
      "count": 897,
      "max": [
        68.29693603515625,
        43.444984436035156,
        67.78176879882812
      ],
      "min": [
        -86.65289306640625,
        -126.2558364868164,
        -48.572265625
      ],
      "type": "VEC3"
    },
    {
      "bufferView": 17,
      "componentType": 5126,
      "count": 897,
      "type": "VEC3"
    },
    {
      "bufferView": 18,
      "componentType": 5126,
      "count": 897,
      "type": "VEC2"
    },
    {
      "bufferView": 19,
      "componentType": 5123,
      "count": 4398,
      "type": "SCALAR"
    },
    {
      "bufferView": 20,
      "componentType": 5126,
      "count": 4096,
      "max": [
        1000.0040893554688,
        0,
        1000.00390625
      ],
      "min": [
        -1000.0040893554688,
        0,
        -1000.00390625
      ],
      "type": "VEC3"
    },
    {
      "bufferView": 21,
      "componentType": 5126,
      "count": 4096,
      "type": "VEC3"
    },
    {
      "bufferView": 22,
      "componentType": 5126,
      "count": 4096,
      "type": "VEC2"
    },
    {
      "bufferView": 23,
      "componentType": 5123,
      "count": 6144,
      "type": "SCALAR"
    },
    {
      "bufferView": 24,
      "componentType": 5126,
      "count": 512,
      "max": [
        1030.004150390625,
        98.5535659790039,
        1030.00390625
      ],
      "min": [
        -1030.00390625,
        0,
        -1030.0040283203125
      ],
      "type": "VEC3"
    },
    {
      "bufferView": 25,
      "componentType": 5126,
      "count": 512,
      "type": "VEC3"
    },
    {
      "bufferView": 26,
      "componentType": 5126,
      "count": 512,
      "type": "VEC2"
    },
    {
      "bufferView": 27,
      "componentType": 5123,
      "count": 768,
      "type": "SCALAR"
    }
  ],
  "bufferViews": [
    {
      "buffer": 0,
      "byteLength": 40464,
      "byteOffset": 0
    },
    {
      "buffer": 0,
      "byteLength": 40464,
      "byteOffset": 40464
    },
    {
      "buffer": 0,
      "byteLength": 26976,
      "byteOffset": 80928
    },
    {
      "buffer": 0,
      "byteLength": 10116,
      "byteOffset": 107904
    },
    {
      "buffer": 0,
      "byteLength": 27648,
      "byteOffset": 118020
    },
    {
      "buffer": 0,
      "byteLength": 27648,
      "byteOffset": 145668
    },
    {
      "buffer": 0,
      "byteLength": 18432,
      "byteOffset": 173316
    },
    {
      "buffer": 0,
      "byteLength": 6912,
      "byteOffset": 191748
    },
    {
      "buffer": 0,
      "byteLength": 15348,
      "byteOffset": 198660
    },
    {
      "buffer": 0,
      "byteLength": 15348,
      "byteOffset": 214008
    },
    {
      "buffer": 0,
      "byteLength": 10232,
      "byteOffset": 229356
    },
    {
      "buffer": 0,
      "byteLength": 4088,
      "byteOffset": 239588
    },
    {
      "buffer": 0,
      "byteLength": 32256,
      "byteOffset": 243676
    },
    {
      "buffer": 0,
      "byteLength": 32256,
      "byteOffset": 275932
    },
    {
      "buffer": 0,
      "byteLength": 21504,
      "byteOffset": 308188
    },
    {
      "buffer": 0,
      "byteLength": 11424,
      "byteOffset": 329692
    },
    {
      "buffer": 0,
      "byteLength": 10764,
      "byteOffset": 341116
    },
    {
      "buffer": 0,
      "byteLength": 10764,
      "byteOffset": 351880
    },
    {
      "buffer": 0,
      "byteLength": 7176,
      "byteOffset": 362644
    },
    {
      "buffer": 0,
      "byteLength": 8796,
      "byteOffset": 369820
    },
    {
      "buffer": 0,
      "byteLength": 49152,
      "byteOffset": 378616
    },
    {
      "buffer": 0,
      "byteLength": 49152,
      "byteOffset": 427768
    },
    {
      "buffer": 0,
      "byteLength": 32768,
      "byteOffset": 476920
    },
    {
      "buffer": 0,
      "byteLength": 12288,
      "byteOffset": 509688
    },
    {
      "buffer": 0,
      "byteLength": 6144,
      "byteOffset": 521976
    },
    {
      "buffer": 0,
      "byteLength": 6144,
      "byteOffset": 528120
    },
    {
      "buffer": 0,
      "byteLength": 4096,
      "byteOffset": 534264
    },
    {
      "buffer": 0,
      "byteLength": 1536,
      "byteOffset": 538360
    }
  ],
  "samplers": [
    {
      "magFilter": 9729,
      "minFilter": 9987
    }
  ],
  "buffers": [
    {
      "uri": "partycity_data.bin",
      "byteLength": 539896
    }
  ]
}