<svg xmlns="http://www.w3.org/2000/svg" width="2560" height="64">
   <defs>
      <filter id="blur1" x="-50%" y="-50%" width="200%" height="200%">
         <feGaussianBlur in="SourceGraphic" stdDeviation="1"></feGaussianBlur>
      </filter>
   </defs>
   <defs>
      <filter id="blur2" x="-100%" y="-100%" width="400%" height="400%">
         <feGaussianBlur in="SourceGraphic" stdDeviation="8"></feGaussianBlur>
      </filter>
   </defs><g transform="translate(0, 0)">
       <circle cx="32" cy="32" r="16" fill="#65ea00" opacity="1" filter="url(#blur1)"></circle>
       <circle cx="32" cy="32" r="16" fill="#abfa99" opacity="1" filter="url(#blur2)"></circle>
   </g><g transform="translate(64, 0)">
       <circle cx="32" cy="32" r="16" fill="#65ea00" opacity="0.9803921568627451" filter="url(#blur1)"></circle>
       <circle cx="32" cy="32" r="16" fill="#abfa99" opacity="0.9686274509803922" filter="url(#blur2)"></circle>
   </g><g transform="translate(128, 0)">
       <circle cx="32" cy="32" r="16" fill="#65ea00" opacity="0.9607843137254902" filter="url(#blur1)"></circle>
       <circle cx="32" cy="32" r="16" fill="#abfa99" opacity="0.9372549019607843" filter="url(#blur2)"></circle>
   </g><g transform="translate(192, 0)">
       <circle cx="32" cy="32" r="16" fill="#65ea00" opacity="0.9411764705882353" filter="url(#blur1)"></circle>
       <circle cx="32" cy="32" r="16" fill="#abfa99" opacity="0.9058823529411765" filter="url(#blur2)"></circle>
   </g><g transform="translate(256, 0)">
       <circle cx="32" cy="32" r="16" fill="#65ea00" opacity="0.9215686274509803" filter="url(#blur1)"></circle>
       <circle cx="32" cy="32" r="16" fill="#abfa99" opacity="0.8745098039215686" filter="url(#blur2)"></circle>
   </g><g transform="translate(320, 0)">
       <circle cx="32" cy="32" r="16" fill="#65ea00" opacity="0.9019607843137255" filter="url(#blur1)"></circle>
       <circle cx="32" cy="32" r="16" fill="#abfa99" opacity="0.8431372549019608" filter="url(#blur2)"></circle>
   </g><g transform="translate(384, 0)">
       <circle cx="32" cy="32" r="16" fill="#65ea00" opacity="0.8823529411764706" filter="url(#blur1)"></circle>
       <circle cx="32" cy="32" r="16" fill="#abfa99" opacity="0.8117647058823529" filter="url(#blur2)"></circle>
   </g><g transform="translate(448, 0)">
       <circle cx="32" cy="32" r="16" fill="#65ea00" opacity="0.8627450980392157" filter="url(#blur1)"></circle>
       <circle cx="32" cy="32" r="16" fill="#abfa99" opacity="0.7803921568627451" filter="url(#blur2)"></circle>
   </g><g transform="translate(512, 0)">
       <circle cx="32" cy="32" r="16" fill="#65ea00" opacity="0.8431372549019608" filter="url(#blur1)"></circle>
       <circle cx="32" cy="32" r="16" fill="#abfa99" opacity="0.7490196078431373" filter="url(#blur2)"></circle>
   </g><g transform="translate(576, 0)">
       <circle cx="32" cy="32" r="16" fill="#65ea00" opacity="0.8235294117647058" filter="url(#blur1)"></circle>
       <circle cx="32" cy="32" r="16" fill="#abfa99" opacity="0.7176470588235294" filter="url(#blur2)"></circle>
   </g><g transform="translate(640, 0)">
       <circle cx="32" cy="32" r="16" fill="#65ea00" opacity="0.803921568627451" filter="url(#blur1)"></circle>
       <circle cx="32" cy="32" r="16" fill="#abfa99" opacity="0.6862745098039216" filter="url(#blur2)"></circle>
   </g><g transform="translate(704, 0)">
       <circle cx="32" cy="32" r="16" fill="#65ea00" opacity="0.7843137254901961" filter="url(#blur1)"></circle>
       <circle cx="32" cy="32" r="16" fill="#abfa99" opacity="0.6549019607843137" filter="url(#blur2)"></circle>
   </g><g transform="translate(768, 0)">
       <circle cx="32" cy="32" r="16" fill="#65ea00" opacity="0.7647058823529411" filter="url(#blur1)"></circle>
       <circle cx="32" cy="32" r="16" fill="#abfa99" opacity="0.6235294117647059" filter="url(#blur2)"></circle>
   </g><g transform="translate(832, 0)">
       <circle cx="32" cy="32" r="16" fill="#65ea00" opacity="0.7450980392156863" filter="url(#blur1)"></circle>
       <circle cx="32" cy="32" r="16" fill="#abfa99" opacity="0.592156862745098" filter="url(#blur2)"></circle>
   </g><g transform="translate(896, 0)">
       <circle cx="32" cy="32" r="16" fill="#65ea00" opacity="0.7254901960784313" filter="url(#blur1)"></circle>
       <circle cx="32" cy="32" r="16" fill="#abfa99" opacity="0.5607843137254902" filter="url(#blur2)"></circle>
   </g><g transform="translate(960, 0)">
       <circle cx="32" cy="32" r="16" fill="#65ea00" opacity="0.7058823529411765" filter="url(#blur1)"></circle>
       <circle cx="32" cy="32" r="16" fill="#abfa99" opacity="0.5294117647058824" filter="url(#blur2)"></circle>
   </g><g transform="translate(1024, 0)">
       <circle cx="32" cy="32" r="16" fill="#65ea00" opacity="0.6862745098039216" filter="url(#blur1)"></circle>
       <circle cx="32" cy="32" r="16" fill="#abfa99" opacity="0.4980392156862745" filter="url(#blur2)"></circle>
   </g><g transform="translate(1088, 0)">
       <circle cx="32" cy="32" r="16" fill="#65ea00" opacity="0.6666666666666666" filter="url(#blur1)"></circle>
       <circle cx="32" cy="32" r="16" fill="#abfa99" opacity="0.4666666666666667" filter="url(#blur2)"></circle>
   </g><g transform="translate(1152, 0)">
       <circle cx="32" cy="32" r="16" fill="#65ea00" opacity="0.6470588235294118" filter="url(#blur1)"></circle>
       <circle cx="32" cy="32" r="16" fill="#abfa99" opacity="0.43529411764705883" filter="url(#blur2)"></circle>
   </g><g transform="translate(1216, 0)">
       <circle cx="32" cy="32" r="16" fill="#65ea00" opacity="0.6274509803921569" filter="url(#blur1)"></circle>
       <circle cx="32" cy="32" r="16" fill="#abfa99" opacity="0.403921568627451" filter="url(#blur2)"></circle>
   </g><g transform="translate(1280, 0)">
       <circle cx="32" cy="32" r="16" fill="#65ea00" opacity="0.6274509803921569" filter="url(#blur1)"></circle>
       <circle cx="32" cy="32" r="16" fill="#abfa99" opacity="0.403921568627451" filter="url(#blur2)"></circle>
   </g><g transform="translate(1344, 0)">
       <circle cx="32" cy="32" r="16" fill="#65ea00" opacity="0.6470588235294118" filter="url(#blur1)"></circle>
       <circle cx="32" cy="32" r="16" fill="#abfa99" opacity="0.43529411764705883" filter="url(#blur2)"></circle>
   </g><g transform="translate(1408, 0)">
       <circle cx="32" cy="32" r="16" fill="#65ea00" opacity="0.6666666666666666" filter="url(#blur1)"></circle>
       <circle cx="32" cy="32" r="16" fill="#abfa99" opacity="0.4666666666666667" filter="url(#blur2)"></circle>
   </g><g transform="translate(1472, 0)">
       <circle cx="32" cy="32" r="16" fill="#65ea00" opacity="0.6862745098039216" filter="url(#blur1)"></circle>
       <circle cx="32" cy="32" r="16" fill="#abfa99" opacity="0.4980392156862745" filter="url(#blur2)"></circle>
   </g><g transform="translate(1536, 0)">
       <circle cx="32" cy="32" r="16" fill="#65ea00" opacity="0.7058823529411765" filter="url(#blur1)"></circle>
       <circle cx="32" cy="32" r="16" fill="#abfa99" opacity="0.5294117647058824" filter="url(#blur2)"></circle>
   </g><g transform="translate(1600, 0)">
       <circle cx="32" cy="32" r="16" fill="#65ea00" opacity="0.7254901960784313" filter="url(#blur1)"></circle>
       <circle cx="32" cy="32" r="16" fill="#abfa99" opacity="0.5607843137254902" filter="url(#blur2)"></circle>
   </g><g transform="translate(1664, 0)">
       <circle cx="32" cy="32" r="16" fill="#65ea00" opacity="0.7450980392156863" filter="url(#blur1)"></circle>
       <circle cx="32" cy="32" r="16" fill="#abfa99" opacity="0.592156862745098" filter="url(#blur2)"></circle>
   </g><g transform="translate(1728, 0)">
       <circle cx="32" cy="32" r="16" fill="#65ea00" opacity="0.7647058823529411" filter="url(#blur1)"></circle>
       <circle cx="32" cy="32" r="16" fill="#abfa99" opacity="0.6235294117647059" filter="url(#blur2)"></circle>
   </g><g transform="translate(1792, 0)">
       <circle cx="32" cy="32" r="16" fill="#65ea00" opacity="0.7843137254901961" filter="url(#blur1)"></circle>
       <circle cx="32" cy="32" r="16" fill="#abfa99" opacity="0.6549019607843137" filter="url(#blur2)"></circle>
   </g><g transform="translate(1856, 0)">
       <circle cx="32" cy="32" r="16" fill="#65ea00" opacity="0.803921568627451" filter="url(#blur1)"></circle>
       <circle cx="32" cy="32" r="16" fill="#abfa99" opacity="0.6862745098039216" filter="url(#blur2)"></circle>
   </g><g transform="translate(1920, 0)">
       <circle cx="32" cy="32" r="16" fill="#65ea00" opacity="0.8235294117647058" filter="url(#blur1)"></circle>
       <circle cx="32" cy="32" r="16" fill="#abfa99" opacity="0.7176470588235294" filter="url(#blur2)"></circle>
   </g><g transform="translate(1984, 0)">
       <circle cx="32" cy="32" r="16" fill="#65ea00" opacity="0.8431372549019608" filter="url(#blur1)"></circle>
       <circle cx="32" cy="32" r="16" fill="#abfa99" opacity="0.7490196078431373" filter="url(#blur2)"></circle>
   </g><g transform="translate(2048, 0)">
       <circle cx="32" cy="32" r="16" fill="#65ea00" opacity="0.8627450980392157" filter="url(#blur1)"></circle>
       <circle cx="32" cy="32" r="16" fill="#abfa99" opacity="0.7803921568627451" filter="url(#blur2)"></circle>
   </g><g transform="translate(2112, 0)">
       <circle cx="32" cy="32" r="16" fill="#65ea00" opacity="0.8823529411764706" filter="url(#blur1)"></circle>
       <circle cx="32" cy="32" r="16" fill="#abfa99" opacity="0.8117647058823529" filter="url(#blur2)"></circle>
   </g><g transform="translate(2176, 0)">
       <circle cx="32" cy="32" r="16" fill="#65ea00" opacity="0.9019607843137255" filter="url(#blur1)"></circle>
       <circle cx="32" cy="32" r="16" fill="#abfa99" opacity="0.8431372549019608" filter="url(#blur2)"></circle>
   </g><g transform="translate(2240, 0)">
       <circle cx="32" cy="32" r="16" fill="#65ea00" opacity="0.9215686274509803" filter="url(#blur1)"></circle>
       <circle cx="32" cy="32" r="16" fill="#abfa99" opacity="0.8745098039215686" filter="url(#blur2)"></circle>
   </g><g transform="translate(2304, 0)">
       <circle cx="32" cy="32" r="16" fill="#65ea00" opacity="0.9411764705882353" filter="url(#blur1)"></circle>
       <circle cx="32" cy="32" r="16" fill="#abfa99" opacity="0.9058823529411765" filter="url(#blur2)"></circle>
   </g><g transform="translate(2368, 0)">
       <circle cx="32" cy="32" r="16" fill="#65ea00" opacity="0.9607843137254902" filter="url(#blur1)"></circle>
       <circle cx="32" cy="32" r="16" fill="#abfa99" opacity="0.9372549019607843" filter="url(#blur2)"></circle>
   </g><g transform="translate(2432, 0)">
       <circle cx="32" cy="32" r="16" fill="#65ea00" opacity="0.9803921568627451" filter="url(#blur1)"></circle>
       <circle cx="32" cy="32" r="16" fill="#abfa99" opacity="0.9686274509803922" filter="url(#blur2)"></circle>
   </g><g transform="translate(2496, 0)">
       <circle cx="32" cy="32" r="16" fill="#65ea00" opacity="1" filter="url(#blur1)"></circle>
       <circle cx="32" cy="32" r="16" fill="#abfa99" opacity="1" filter="url(#blur2)"></circle>
   </g></svg>