<?xml version="1.0" standalone="no"?>
<!DOCTYPE svg PUBLIC "-//W3C//DTD SVG 20010904//EN"
 "http://www.w3.org/TR/2001/REC-SVG-20010904/DTD/svg10.dtd">
<svg version="1.0" xmlns="http://www.w3.org/2000/svg"
 width="1024.000000pt" height="1024.000000pt" viewBox="0 0 1024.000000 1024.000000"
 preserveAspectRatio="xMidYMid meet">
<metadata>
Created by potrace 1.14, written by Peter Selinger 2001-2017
</metadata>
<g transform="translate(0.000000,1024.000000) scale(0.100000,-0.100000)"
fill="#000000" stroke="none">
<path d="M0 6563 c0 -3500 1 -3675 18 -3661 9 8 24 18 32 22 8 5 0 -4 -17 -19
l-33 -26 0 -1440 0 -1439 5120 0 5120 0 0 5120 0 5120 -5120 0 -5120 0 0
-3677z m1479 2463 c-9 -9 -78 -13 -73 -5 3 5 21 9 41 9 20 0 34 -2 32 -4z m47
-22 c18 -14 18 -14 -6 -3 -31 14 -36 19 -24 19 6 0 19 -7 30 -16z m-135 -37
c-10 -9 -11 -8 -5 6 3 10 9 15 12 12 3 -3 0 -11 -7 -18z m-12 -38 c-16 -31 0
-41 80 -47 39 -2 71 -9 71 -14 0 -5 40 -8 94 -6 52 2 92 0 89 -4 -7 -12 -181
-10 -188 2 -3 6 -25 10 -48 11 -23 0 -60 3 -82 7 -32 6 -39 11 -37 27 4 19 20
45 29 45 2 0 -1 -9 -8 -21z m201 -19 c0 -5 -2 -10 -4 -10 -3 0 -8 5 -11 10 -3
6 -1 10 4 10 6 0 11 -4 11 -10z m203 -57 c-5 -12 -3 -14 7 -8 8 5 11 4 7 -2
-7 -11 -67 -5 -67 7 0 10 18 18 42 19 12 1 15 -4 11 -16z m-156 -45 c-3 -7 -5
-2 -5 12 0 14 2 19 5 13 2 -7 2 -19 0 -25z m30 10 c-3 -8 -6 -5 -6 6 -1 11 2
17 5 13 3 -3 4 -12 1 -19z m-496 -34 c11 -14 10 -16 -11 -12 -20 2 -26 -2 -30
-27 -6 -30 -6 -30 -13 -5 -11 40 -8 48 16 53 12 2 23 5 23 6 1 0 8 -6 15 -15z
m609 6 c0 -5 -5 -10 -11 -10 -5 0 -7 5 -4 10 3 6 8 10 11 10 2 0 4 -4 4 -10z
m-557 -17 c-7 -2 -19 -2 -25 0 -7 3 -2 5 12 5 14 0 19 -2 13 -5z m60 -36 c6
-25 6 -50 -1 -70 l-11 -32 4 33 c4 39 -10 92 -27 104 -9 6 -7 8 7 6 13 -2 22
-15 28 -41z m-298 -7 c-3 -5 -10 -10 -16 -10 -5 0 -9 5 -9 10 0 6 7 10 16 10
8 0 12 -4 9 -10z m168 -113 c-8 -13 -21 23 -21 58 0 14 4 10 14 -13 8 -18 11
-38 7 -45z m121 -2 c-4 -8 -8 -15 -10 -15 -2 0 -4 7 -4 15 0 8 4 15 10 15 5 0
7 -7 4 -15z m-64 -25 c0 -5 -5 -10 -11 -10 -5 0 -7 5 -4 10 3 6 8 10 11 10 2
0 4 -4 4 -10z m-473 -50 c19 -15 21 -20 9 -20 -9 0 -16 5 -16 10 0 6 -7 10
-15 10 -8 0 -15 5 -15 10 0 15 9 12 37 -10z m413 -30 c0 -5 -10 -10 -22 -9
-22 0 -22 1 -3 9 11 5 21 9 23 9 1 1 2 -3 2 -9z m-540 -15 c-10 -12 -10 -18 0
-30 20 -25 4 -29 -20 -5 -17 17 -19 24 -9 36 6 8 18 14 26 14 13 0 13 -3 3
-15z m174 -21 c3 -8 2 -12 -4 -9 -6 3 -10 10 -10 16 0 14 7 11 14 -7z m371 6
c-3 -5 -11 -10 -16 -10 -6 0 -7 5 -4 10 3 6 11 10 16 10 6 0 7 -4 4 -10z m65
-91 c0 -4 -5 -20 -12 -36 l-11 -28 -7 40 c-5 22 -6 44 -3 48 5 9 33 -11 33
-24z m-531 2 c13 -10 19 -21 14 -24 -6 -4 -21 5 -33 18 -27 29 -16 33 19 6z
m8571 -85 c0 -21 -17 -28 -24 -10 -3 8 -11 12 -17 8 -8 -4 -9 -3 -5 4 10 17
46 15 46 -2z m60 4 c0 -5 -4 -10 -10 -10 -5 0 -10 5 -10 10 0 6 5 10 10 10 6
0 10 -4 10 -10z m-137 -20 c-3 -11 -10 -23 -16 -27 -5 -3 -8 -2 -5 3 3 5 8 17
11 27 9 24 16 22 10 -3z m-8423 -25 c-7 -9 -15 -13 -18 -10 -3 2 1 11 8 20 7
9 15 13 18 10 3 -2 -1 -11 -8 -20z m30 -5 c0 -5 -5 -10 -11 -10 -5 0 -7 5 -4
10 3 6 8 10 11 10 2 0 4 -4 4 -10z m8190 -4 c0 -21 -17 -28 -24 -10 -3 8 -11
12 -17 8 -8 -4 -9 -3 -5 4 10 17 46 15 46 -2z m60 4 c0 -5 -4 -10 -10 -10 -5
0 -10 5 -10 10 0 6 5 10 10 10 6 0 10 -4 10 -10z m-137 -20 c-3 -11 -10 -23
-16 -27 -5 -3 -8 -2 -5 3 3 5 8 17 11 27 9 24 16 22 10 -3z m-8017 -8 c14 -9
28 -52 18 -52 -11 0 -54 42 -54 52 0 10 21 10 36 0z m8418 -8 c39 -39 6 -90
-56 -85 -18 1 -34 36 -29 61 8 40 56 54 85 24z m256 2 c0 -21 -17 -28 -24 -10
-3 8 -11 12 -17 8 -8 -4 -9 -3 -5 4 10 17 46 15 46 -2z m60 4 c0 -5 -4 -10
-10 -10 -5 0 -10 5 -10 10 0 6 5 10 10 10 6 0 10 -4 10 -10z m-137 -20 c-3
-11 -10 -23 -16 -27 -5 -3 -8 -2 -5 3 3 5 8 17 11 27 9 24 16 22 10 -3z m-459
-36 c39 -39 6 -90 -56 -85 -18 1 -34 36 -29 61 8 40 56 54 85 24z m706 -8 c0
-21 -17 -28 -24 -10 -3 8 -11 12 -17 8 -8 -4 -9 -3 -5 4 10 17 46 15 46 -2z
m60 4 c0 -5 -4 -10 -10 -10 -5 0 -10 5 -10 10 0 6 5 10 10 10 6 0 10 -4 10
-10z m-137 -20 c-3 -11 -10 -23 -16 -27 -5 -3 -8 -2 -5 3 3 5 8 17 11 27 9 24
16 22 10 -3z m-49 -6 c39 -39 6 -90 -56 -85 -18 1 -34 36 -29 61 8 40 56 54
85 24z m-7893 -31 c13 -16 12 -17 -3 -4 -10 7 -18 15 -18 17 0 8 8 3 21 -13z
m590 -20 c13 -16 12 -17 -3 -4 -10 7 -18 15 -18 17 0 8 8 3 21 -13z m-342 -17
c23 -24 66 -135 56 -144 -5 -5 -9 5 -25 63 -13 51 -40 85 -67 88 -12 0 -19 5
-17 9 9 15 30 8 53 -16z m7815 8 c39 -39 6 -90 -56 -85 -18 1 -34 36 -29 61 8
40 56 54 85 24z m-7897 -19 c0 -8 -4 -12 -9 -9 -5 3 -6 10 -3 15 9 13 12 11
12 -6z m7335 -67 c-8 -46 -19 -89 -24 -95 -16 -20 -32 -15 -44 12 -11 23 -10
24 7 14 11 -5 24 -7 29 -4 8 5 32 104 29 121 -3 18 1 34 10 34 4 0 2 -37 -7
-82z m-7407 62 c6 5 16 5 25 0 11 -7 12 -10 2 -10 -7 0 -10 -4 -7 -10 4 -6 -1
-7 -11 -3 -14 5 -15 3 -4 -17 7 -13 32 -45 56 -70 24 -26 41 -49 39 -52 -3 -3
27 -38 67 -79 40 -40 56 -58 36 -39 l-38 34 -27 -25 -28 -24 22 26 23 25 -35
34 c-19 19 -35 37 -35 42 0 15 -105 147 -117 147 -14 1 -17 14 -6 24 4 4 11 3
17 -3 6 -6 14 -6 21 0z m744 -14 c23 -24 66 -135 56 -144 -5 -5 -9 5 -25 63
-13 51 -40 85 -67 88 -12 0 -19 5 -17 9 9 15 30 8 53 -16z m-761 -37 c9 -14 6
-22 -15 -43 -14 -14 -28 -26 -32 -26 -17 1 -26 19 -27 53 -1 35 0 37 16 22 16
-15 17 -14 12 11 -4 24 -3 25 15 13 11 -6 25 -20 31 -30z m608 21 c6 6 15 6
24 0 11 -7 11 -10 2 -10 -7 0 -10 -4 -7 -10 4 -6 -1 -7 -11 -3 -14 5 -15 3 -4
-17 7 -13 32 -45 56 -70 24 -26 41 -49 39 -52 -3 -3 27 -38 67 -79 40 -40 56
-58 36 -39 l-38 34 -27 -25 -28 -24 22 26 23 25 -35 34 c-19 19 -35 37 -35 42
0 12 -104 147 -114 147 -4 1 -1 -10 7 -23 15 -23 15 -26 -10 -50 -17 -17 -32
-24 -42 -20 -9 4 -26 7 -38 8 -12 1 -28 7 -35 14 -10 10 -5 11 26 6 l39 -6 -6
37 c-6 36 -5 37 12 21 17 -16 18 -15 13 10 -3 17 -1 25 6 21 5 -4 13 1 17 11
6 16 7 16 19 0 8 -11 16 -14 22 -8z m71 5 c0 -8 -4 -12 -9 -9 -5 3 -6 10 -3
15 9 13 12 11 12 -6z m6465 -87 c-8 -46 -19 -89 -24 -95 -16 -20 -32 -15 -44
12 -11 23 -10 24 7 14 11 -5 24 -7 29 -4 8 5 32 104 29 121 -3 18 1 34 10 34
4 0 2 -37 -7 -82z m582 -20 c-22 -119 -22 -120 -47 -116 -12 2 -23 9 -23 16
-3 26 -6 26 -15 2 -9 -23 -11 -23 -20 -7 -6 9 -16 14 -22 11 -9 -5 -9 -4 -2 4
13 14 53 18 77 7 26 -10 40 35 48 148 0 4 4 7 9 7 5 0 3 -33 -5 -72z m-7831
25 c-4 -10 -9 -11 -19 -2 -19 15 -18 18 5 16 11 -1 17 -6 14 -14z m2862 -23
c3 -6 -4 -10 -17 -10 -29 0 -97 -68 -93 -92 3 -18 -10 -25 -19 -10 -8 14 5 52
18 52 7 0 27 16 46 35 34 36 54 43 65 25z m5139 -62 c-21 -112 -23 -118 -42
-118 -9 0 -22 11 -28 25 -11 23 -10 24 7 14 11 -5 24 -7 29 -4 8 5 32 104 29
121 -3 18 1 34 10 34 5 0 3 -33 -5 -72z m-7994 46 c0 -8 -5 -12 -10 -9 -6 4
-8 11 -5 16 9 14 15 11 15 -7z m2923 -37 c22 -31 46 -67 35 -57 -46 47 -87 99
-75 94 9 -3 27 -20 40 -37z m4747 23 c0 -13 -7 -20 -18 -20 -30 0 -34 13 -10
27 30 16 28 16 28 -7z m-7080 -16 c0 -8 -5 -12 -10 -9 -6 4 -8 11 -5 16 9 14
15 11 15 -7z m6800 -34 c0 -13 -7 -20 -18 -20 -30 0 -34 13 -10 27 30 16 28
16 28 -7z m-7049 -17 c13 -16 12 -17 -3 -4 -10 7 -18 15 -18 17 0 8 8 3 21
-13z m6969 3 c0 -21 -17 -28 -24 -10 -3 8 -11 12 -17 8 -8 -4 -9 -3 -5 4 10
17 46 15 46 -2z m353 -16 c-3 -11 -10 -23 -16 -27 -5 -3 -8 -2 -5 3 3 5 8 17
11 27 9 24 16 22 10 -3z m-441 -22 c-8 -8 -9 -4 -5 13 4 13 8 18 11 10 2 -7
-1 -18 -6 -23z m-6291 5 c13 -16 12 -17 -3 -4 -10 7 -18 15 -18 17 0 8 8 3 21
-13z m1924 -33 c8 0 15 -4 15 -10 0 -6 -9 -6 -25 0 -37 14 -85 40 -85 45 0 3
18 -4 40 -15 21 -11 46 -20 55 -20z m85 6 c0 -3 -4 -8 -10 -11 -5 -3 -10 -1
-10 4 0 6 5 11 10 11 6 0 10 -2 10 -4z m5200 -16 c0 -13 -7 -20 -18 -20 -30 0
-34 13 -10 27 30 16 28 16 28 -7z m-786 -6 c39 -39 6 -90 -56 -85 -18 1 -34
36 -29 61 8 40 56 54 85 24z m430 0 c39 -39 6 -90 -56 -85 -18 1 -34 36 -29
61 8 40 56 54 85 24z m-7355 -44 c0 -9 -4 -8 -9 5 -5 11 -9 27 -9 35 0 9 4 8
9 -5 5 -11 9 -27 9 -35z m-19 -1 c0 -9 -34 -7 -47 4 -18 13 -16 28 2 21 9 -4
15 -1 15 7 0 12 29 -19 30 -32z m2490 21 c8 -5 11 -10 5 -10 -5 0 -17 5 -25
10 -8 5 -10 10 -5 10 6 0 17 -5 25 -10z m-1893 -22 c-3 -8 -6 -5 -6 6 -1 11 2
17 5 13 3 -3 4 -12 1 -19z m-7 -29 c0 -9 -34 -7 -47 4 -18 13 -16 28 2 21 9
-4 15 -1 15 7 0 12 29 -19 30 -32z m2005 11 c28 -12 38 -18 24 -16 -15 3 -46
15 -70 26 -54 25 -22 18 46 -10z m-2613 -22 c-7 -7 -10 -5 -7 8 5 29 6 30 12
16 3 -8 1 -18 -5 -24z m2288 16 c0 -8 -5 -12 -10 -9 -6 4 -8 11 -5 16 9 14 15
11 15 -7z m273 -9 c-3 -9 -8 -14 -10 -11 -3 3 -2 9 2 15 9 16 15 13 8 -4z
m-2872 -12 c13 -16 12 -17 -3 -4 -17 13 -22 21 -14 21 2 0 10 -8 17 -17z m276
-16 c23 -33 56 -127 48 -135 -5 -5 -10 6 -25 63 -13 51 -40 85 -67 88 -25 1
-20 17 5 17 9 0 27 -15 39 -33z m2765 18 c7 4 5 0 -5 -8 -12 -10 -14 -17 -8
-22 6 -3 11 -11 11 -16 0 -7 -27 5 -59 28 -2 1 2 9 9 18 9 11 16 12 26 4 7 -6
19 -8 26 -4z m-2140 -27 c-7 -7 -10 -5 -7 8 5 29 6 30 12 16 3 -8 1 -18 -5
-24z m1995 10 c-3 -8 -6 -5 -6 6 -1 11 2 17 5 13 3 -3 4 -12 1 -19z m-2710 -3
c0 -8 -4 -12 -9 -9 -5 3 -6 10 -3 15 9 13 12 11 12 -6z m-45 -13 c-7 -2 -10
-8 -7 -13 4 -5 -1 -6 -11 -2 -14 5 -15 3 -4 -17 7 -13 32 -45 56 -70 24 -26
41 -49 39 -52 -3 -3 27 -38 67 -79 40 -40 56 -58 36 -39 l-38 34 -27 -25 -28
-24 22 26 23 25 -35 34 c-19 19 -35 37 -35 42 0 4 -25 40 -55 79 -50 65 -54
73 -38 84 9 7 24 10 32 7 10 -4 11 -7 3 -10z m703 8 c3 -5 1 -10 -4 -10 -6 0
-11 5 -11 10 0 6 2 10 4 10 3 0 8 -4 11 -10z m7135 -24 c0 -21 -17 -28 -24
-10 -3 8 -11 12 -17 8 -8 -4 -9 -3 -5 4 10 17 46 15 46 -2z m60 4 c0 -5 -4
-10 -10 -10 -5 0 -10 5 -10 10 0 6 5 10 10 10 6 0 10 -4 10 -10z m-7944 -65
c-6 -13 -14 -21 -18 -19 -3 2 -9 0 -13 -6 -9 -15 -23 -12 -45 10 -26 26 -27
49 -1 26 18 -16 18 -16 13 10 -3 17 -1 25 6 21 5 -4 13 1 16 10 6 14 9 13 30
-6 20 -19 22 -26 12 -46z m7807 45 c-3 -11 -10 -23 -16 -27 -5 -3 -8 -2 -5 3
3 5 8 17 11 27 9 24 16 22 10 -3z m-719 -62 c-21 -112 -23 -118 -42 -118 -9 0
-22 11 -28 25 -11 23 -10 24 7 14 11 -5 24 -7 29 -4 8 5 32 104 29 121 -3 18
1 34 10 34 5 0 3 -33 -5 -72z m430 0 c-21 -112 -23 -118 -42 -118 -9 0 -22 11
-28 25 -11 23 -10 24 7 14 11 -5 24 -7 29 -4 8 5 32 104 29 121 -3 18 1 34 10
34 5 0 3 -33 -5 -72z m410 -4 c39 -39 6 -90 -56 -85 -18 1 -34 36 -29 61 8 40
56 54 85 24z m-8051 -28 c-4 -5 1 -7 10 -3 11 4 17 1 17 -8 0 -25 -17 -25 -40
0 -22 23 -22 24 -2 22 11 0 18 -5 15 -11z m7467 -40 c0 -21 -17 -28 -24 -10
-3 8 -11 12 -17 8 -8 -4 -9 -3 -5 4 10 17 46 15 46 -2z m60 4 c0 -5 -4 -10
-10 -10 -5 0 -10 5 -10 10 0 6 5 10 10 10 6 0 10 -4 10 -10z m-137 -20 c-3
-11 -10 -23 -16 -27 -5 -3 -8 -2 -5 3 3 5 8 17 11 27 9 24 16 22 10 -3z m-33
-20 c0 -13 -7 -20 -18 -20 -30 0 -34 13 -10 27 30 16 28 16 28 -7z m430 0 c0
-13 -7 -20 -18 -20 -30 0 -34 13 -10 27 30 16 28 16 28 -7z m-7419 -17 c13
-16 12 -17 -3 -4 -17 13 -22 21 -14 21 2 0 10 -8 17 -17z m3280 0 c15 -3 29
-1 32 4 10 16 96 -2 112 -23 31 -41 12 -84 -38 -84 -30 0 -97 46 -97 67 0 7
-16 20 -35 29 -36 17 -49 32 -17 19 9 -3 29 -9 43 -12z m3529 -17 c0 -21 -17
-28 -24 -10 -3 8 -11 12 -17 8 -8 -4 -9 -3 -5 4 10 17 46 15 46 -2z m60 4 c0
-5 -4 -10 -10 -10 -5 0 -10 5 -10 10 0 6 5 10 10 10 6 0 10 -4 10 -10z m-137
-20 c-3 -11 -10 -23 -16 -27 -5 -3 -8 -2 -5 3 3 5 8 17 11 27 9 24 16 22 10
-3z m411 4 c39 -39 6 -90 -56 -85 -18 1 -34 36 -29 61 8 40 56 54 85 24z m448
-76 c-8 -46 -19 -89 -24 -95 -16 -20 -32 -15 -44 12 -11 23 -10 24 7 14 11 -5
24 -7 29 -4 8 5 32 104 29 121 -3 18 1 34 10 34 4 0 2 -37 -7 -82z m-222 58
c0 -21 -17 -28 -24 -10 -3 8 -11 12 -17 8 -8 -4 -9 -3 -5 4 10 17 46 15 46 -2z
m60 4 c0 -5 -4 -10 -10 -10 -5 0 -10 5 -10 10 0 6 5 10 10 10 6 0 10 -4 10
-10z m-137 -20 c-3 -11 -10 -23 -16 -27 -5 -3 -8 -2 -5 3 3 5 8 17 11 27 9 24
16 22 10 -3z m-7216 -32 c-3 -8 -6 -5 -6 6 -1 11 2 17 5 13 3 -3 4 -12 1 -19z
m-7 -29 c0 -9 -34 -7 -47 4 -18 13 -16 28 2 21 9 -4 15 -1 15 7 0 12 29 -19
30 -32z m6784 25 c39 -39 6 -90 -56 -85 -18 1 -34 36 -29 61 8 40 56 54 85 24z
m-624 -4 c0 -5 -17 -14 -37 -19 -61 -16 -395 -73 -400 -68 -2 3 9 8 24 12 25
7 26 8 8 15 -13 5 10 12 75 24 52 9 129 23 170 30 91 17 160 19 160 6z m1184
-26 c39 -39 6 -90 -56 -85 -18 1 -34 36 -29 61 8 40 56 54 85 24z m-7362 -36
c-7 -7 -10 -5 -7 8 5 29 6 30 12 16 3 -8 1 -18 -5 -24z m-57 2 c3 -5 1 -10 -4
-10 -6 0 -11 5 -11 10 0 6 2 10 4 10 3 0 8 -4 11 -10z m5735 -5 c0 -11 -11
-15 -36 -15 -20 0 -78 -10 -128 -22 l-91 -23 65 -3 c44 -2 86 4 128 17 75 23
93 9 26 -20 -54 -24 -189 -38 -354 -38 l-105 1 105 34 c242 79 390 105 390 69z
m1324 -77 c-21 -112 -23 -118 -42 -118 -9 0 -22 11 -28 25 -11 23 -10 24 7 14
11 -5 24 -7 29 -4 8 5 32 104 29 121 -3 18 1 34 10 34 5 0 3 -33 -5 -72z m686
42 c0 -13 -7 -20 -18 -20 -30 0 -34 13 -10 27 30 16 28 16 28 -7z m-967 -92
c-2 -29 -5 -59 -8 -67 -4 -11 -3 -12 10 -1 8 7 26 10 40 8 21 -5 25 -1 26 21
1 16 6 6 13 -26 6 -28 14 -54 19 -57 4 -3 5 -3 2 1 -3 3 9 14 25 24 17 11 30
26 30 34 0 13 15 8 69 -20 127 -67 237 -210 276 -362 23 -86 23 -3000 0 -3086
-57 -219 -228 -380 -460 -432 -16 -4 -27 -3 -23 1 4 4 0 13 -10 21 -16 13 -15
14 5 8 18 -5 22 -3 17 10 -4 9 -13 13 -23 11 -9 -3 -31 8 -52 27 -20 18 -47
41 -60 50 -13 9 -19 16 -13 16 7 1 35 -20 64 -46 41 -37 54 -43 61 -32 5 8 9
21 9 29 0 23 37 42 59 31 14 -8 22 -6 35 8 20 22 21 32 2 25 -11 -4 -13 0 -9
18 14 65 28 89 87 149 44 45 70 83 87 124 l24 60 0 1465 0 1465 -24 60 c-18
44 -42 78 -90 126 -48 48 -82 72 -126 90 -60 24 -61 24 -506 27 -431 3 -448 2
-500 -18 -53 -20 -54 -20 -29 0 17 13 20 20 10 20 -8 1 1 9 20 19 l34 19 -39
11 c-22 6 -58 11 -79 11 l-39 0 21 -23 c12 -13 22 -26 22 -30 0 -4 -1459 -8
-3242 -9 l-3243 -3 -60 -24 c-83 -33 -183 -133 -216 -216 l-24 -60 1 -655 c0
-360 4 -674 8 -696 5 -27 4 -44 -3 -48 -7 -5 -11 -74 -11 -212 0 -170 2 -204
14 -204 25 0 46 -30 46 -63 -1 -21 -11 -44 -30 -67 l-30 -34 -1 -331 c-1 -181
-3 -321 -6 -310 -6 25 -23 44 -23 26 0 -7 -4 -10 -9 -6 -5 3 -12 -4 -16 -15
-9 -29 -23 -25 -22 7 0 15 7 33 16 40 14 12 14 12 -4 7 -39 -13 -81 -52 -104
-98 -13 -25 -28 -46 -33 -46 -4 0 -8 613 -8 1363 0 1519 -5 1412 71 1557 51
98 138 184 237 234 143 72 -212 66 3910 66 l3725 0 -6 -40 c-3 -23 -1 -43 5
-47 7 -3 8 -1 4 5 -5 8 -2 10 8 6 9 -3 13 -10 10 -15 -3 -5 2 -6 10 -3 13 5
40 96 35 120 -3 17 1 34 9 34 4 0 6 -24 5 -52z m551 -50 c-21 -112 -23 -118
-42 -118 -9 0 -22 11 -28 25 -11 23 -10 24 7 14 11 -5 24 -7 29 -4 8 5 32 104
29 121 -3 18 1 34 10 34 5 0 3 -33 -5 -72z m-508 22 c5 1 10 -3 12 -8 1 -5 -9
-9 -23 -9 -28 0 -27 -1 -19 22 5 12 9 13 14 5 4 -6 11 -11 16 -10z m384 -30
c0 -13 -7 -20 -18 -20 -30 0 -34 13 -10 27 30 16 28 16 28 -7z m270 -100 c0
-13 -7 -20 -18 -20 -30 0 -34 13 -10 27 30 16 28 16 28 -7z m-1755 -89 c3 -5
-12 -15 -32 -22 -41 -13 -213 -97 -213 -103 0 -11 151 40 198 66 52 30 76 32
54 5 -25 -29 -113 -67 -247 -105 -200 -58 -216 -61 -210 -52 3 4 74 48 158 96
182 106 275 142 292 115z m523 -73 c-3 -11 -241 -198 -343 -270 -25 -18 -24
-15 10 22 l40 42 -42 -26 c-24 -14 -43 -24 -43 -22 0 2 66 53 148 113 193 144
240 173 230 141z m1452 -148 c0 -26 4 -39 12 -37 13 2 19 -24 21 -82 0 -26 -6
-40 -29 -58 -16 -12 -32 -23 -36 -23 -11 0 -49 43 -58 65 -8 23 27 104 46 105
7 0 15 16 18 35 9 48 26 44 26 -5z m-770 -50 c0 -26 4 -39 12 -37 13 2 19 -24
21 -82 0 -25 -7 -40 -27 -58 -33 -28 -37 -28 -64 -5 -36 32 -45 69 -24 100 10
15 22 35 25 45 4 10 11 16 16 13 5 -3 12 10 15 29 9 48 26 44 26 -5z m-1101
-93 c-2 -2 -33 -24 -69 -50 -75 -54 -159 -127 -146 -127 17 0 132 75 181 118
30 26 51 39 53 32 8 -24 -85 -100 -208 -170 -220 -127 -219 -127 -90 5 122
123 255 224 273 206 6 -6 9 -12 6 -14z m771 -427 c0 -26 4 -39 12 -37 13 2 19
-24 21 -82 0 -26 -6 -40 -29 -58 -35 -28 -35 -28 -62 -5 -36 32 -45 69 -24
100 10 15 22 35 25 45 4 10 11 16 16 13 5 -3 12 10 15 29 9 48 26 44 26 -5z
m-4150 -940 l420 -840 -102 1 -103 0 -320 644 c-175 354 -321 642 -323 640 -2
-2 -127 -255 -276 -562 l-273 -558 376 -3 376 -2 53 -78 53 -77 -567 -3 c-312
-1 -569 -1 -571 1 -5 5 824 1677 831 1677 3 0 195 -378 426 -840z m5100 760
c0 -27 4 -39 13 -37 6 1 12 -5 13 -13 0 -8 4 -26 8 -40 16 -56 -41 -123 -84
-100 -12 6 -28 27 -36 46 -13 32 -13 37 4 62 10 15 22 35 25 45 4 10 11 16 16
13 5 -3 12 10 15 29 9 48 26 44 26 -5z m-6990 -38 c122 -42 214 -97 301 -179
227 -215 317 -549 221 -827 -92 -267 -320 -475 -596 -546 -72 -18 -112 -20
-430 -20 l-351 0 -29 -40 c-17 -22 -37 -40 -46 -40 -9 0 -24 -16 -34 -36 -21
-45 -29 -40 -14 9 8 25 8 41 1 48 -6 6 -7 28 -3 56 5 34 15 52 34 65 l26 20 0
764 0 765 413 -3 412 -3 95 -33z m2590 -404 c0 -488 3 -516 62 -635 43 -88
130 -188 213 -245 347 -236 818 -83 963 313 l27 74 3 468 3 467 89 0 90 0 0
-445 c0 -367 -3 -459 -16 -523 -64 -313 -318 -564 -637 -628 -110 -23 -294
-15 -392 16 -292 92 -511 327 -569 612 -13 64 -16 156 -16 523 l0 445 90 0 90
0 0 -442z m2730 404 c122 -42 214 -97 301 -179 227 -215 317 -549 222 -825
-93 -269 -320 -477 -597 -548 -73 -18 -111 -20 -463 -20 l-383 0 0 806 0 805
413 -3 412 -3 95 -33z m1100 -152 c0 -25 4 -39 12 -37 17 3 31 -75 19 -106 -6
-14 -21 -33 -35 -42 -33 -22 -62 -6 -83 42 -13 33 -13 38 4 62 11 14 22 34 26
44 4 10 11 16 16 13 5 -3 12 10 15 29 9 48 26 44 26 -5z m-7456 -556 c9 -8 16
-29 16 -45 0 -34 -46 -99 -71 -99 -8 0 -23 -16 -33 -36 -21 -45 -29 -40 -14 9
8 25 8 41 1 48 -6 6 -7 28 -3 56 11 68 67 105 104 67z m2607 -285 c55 -111 98
-203 96 -205 -2 -3 -94 -3 -204 -2 l-200 3 98 203 c54 111 100 202 103 202 3
0 51 -90 107 -201z m-2637 -115 c9 -8 16 -29 16 -45 0 -34 -46 -99 -71 -99 -8
0 -23 -16 -33 -36 -21 -45 -29 -40 -14 9 8 25 8 41 1 48 -6 6 -7 28 -3 56 11
68 67 105 104 67z m-860 -350 c9 -8 16 -29 16 -45 0 -34 -46 -99 -71 -99 -8 0
-23 -16 -33 -36 -21 -45 -29 -40 -14 9 8 25 8 41 1 48 -6 6 -7 28 -3 56 11 68
67 105 104 67z m480 0 c9 -8 16 -29 16 -45 0 -34 -46 -99 -71 -99 -8 0 -23
-16 -33 -36 -21 -45 -29 -40 -14 9 8 25 8 41 1 48 -6 6 -7 28 -3 56 11 68 67
105 104 67z m270 -270 c9 -8 16 -29 16 -45 0 -34 -46 -99 -71 -99 -8 0 -23
-16 -33 -36 -21 -45 -29 -40 -14 9 8 25 8 41 1 48 -6 6 -7 28 -3 56 11 68 67
105 104 67z m-869 -74 c-3 -5 -12 -10 -20 -10 -7 0 -30 -15 -49 -34 -20 -18
-36 -30 -36 -26 0 11 42 47 75 64 35 19 38 19 30 6z m34 -31 c-7 -4 -16 -6
-20 -3 -4 2 -10 -7 -13 -21 -9 -34 -23 -31 -24 5 0 17 3 28 7 26 4 -3 13 -1
21 4 7 4 20 6 27 3 12 -5 12 -7 2 -14z m7341 -27 c14 -20 25 -44 25 -53 1 -8
16 -30 35 -48 32 -30 33 -32 10 -26 -14 4 -35 13 -47 21 -15 10 -23 11 -23 3
0 -20 -83 1 -112 29 -40 37 -39 88 2 106 47 20 82 9 110 -32z m-7412 -63 c-6
-16 -12 -28 -14 -26 -5 5 13 57 20 57 3 0 0 -14 -6 -31z m400 -20 c-6 -16 -12
-28 -14 -26 -5 5 13 57 20 57 3 0 0 -14 -6 -31z m-427 -46 c-12 -20 -14 -14
-5 12 4 9 9 14 11 11 3 -2 0 -13 -6 -23z m-154 -24 c-21 -17 -44 -44 -53 -60
-14 -29 -11 -69 6 -69 4 0 11 -8 14 -17 4 -11 -6 -5 -25 14 l-32 31 26 45 c15
25 41 54 59 66 47 29 49 26 5 -10z m554 4 c-12 -20 -14 -14 -5 12 4 9 9 14 11
11 3 -2 0 -13 -6 -23z m-154 -24 c-35 -29 -67 -76 -67 -98 0 -5 7 -17 16 -25
8 -9 11 -16 6 -16 -5 0 -17 9 -26 19 -17 19 -17 22 5 60 12 22 38 52 58 66 49
34 53 32 8 -6z m-282 -39 c-10 -11 -21 -18 -23 -15 -6 6 31 44 37 39 2 -2 -4
-13 -14 -24z m775 23 c-8 -3 -22 -11 -30 -17 -13 -10 -13 -9 -1 7 7 9 21 17
30 16 13 0 14 -1 1 -6z m49 -24 c-7 -4 -16 -6 -20 -3 -4 2 -10 -7 -13 -21 -9
-35 -23 -31 -24 7 0 19 2 27 7 20 6 -10 10 -10 20 2 7 8 19 12 28 9 11 -5 12
-7 2 -14z m-424 -19 c-10 -11 -21 -18 -23 -15 -6 6 31 44 37 39 2 -2 -4 -13
-14 -24z m308 -4 c-10 -13 -20 -22 -22 -20 -4 4 29 44 36 44 2 0 -4 -11 -14
-24z m-742 -29 c-10 -9 -11 -8 -5 6 3 10 9 15 12 12 3 -3 0 -11 -7 -18z m400
-20 c-10 -9 -11 -8 -5 6 3 10 9 15 12 12 3 -3 0 -11 -7 -18z m387 -18 c-6 -16
-12 -28 -14 -26 -5 5 13 57 20 57 3 0 0 -14 -6 -31z m-816 -20 c-22 -40 -39
-43 -60 -9 l-16 25 23 -20 c28 -24 30 -24 49 15 8 17 17 29 19 26 2 -2 -5 -19
-15 -37z m350 14 c-18 -9 -42 -27 -52 -41 -11 -13 -20 -20 -20 -14 0 15 71 72
90 72 8 0 0 -8 -18 -17z m73 -3 c5 -9 -7 -14 -26 -12 -4 1 -10 -10 -13 -23 -9
-36 -23 -31 -23 8 -1 17 1 26 4 20 3 -10 8 -9 20 2 17 17 29 19 38 5z m366
-57 c-12 -20 -14 -14 -5 12 4 9 9 14 11 11 3 -2 0 -13 -6 -23z m-891 10 c-8
-3 -22 -11 -30 -17 -13 -10 -13 -9 -1 7 7 9 21 17 30 16 13 0 14 -1 1 -6z m49
-24 c-7 -4 -16 -6 -20 -3 -4 2 -10 -7 -13 -21 -9 -35 -23 -31 -24 7 0 19 2 27
7 20 6 -10 10 -10 20 2 7 8 19 12 28 9 11 -5 12 -7 2 -14z m688 -10 c-34 -28
-67 -75 -67 -97 0 -5 8 -18 18 -30 l19 -21 23 22 c23 22 23 22 -2 -13 -13 -19
-30 -47 -37 -61 -7 -15 -24 -32 -36 -37 -26 -12 -33 -5 -74 77 -17 31 -21 53
-16 77 7 40 18 48 45 34 12 -6 20 -7 20 -1 0 5 -6 12 -12 14 -7 3 5 6 27 6 28
1 52 11 79 31 52 39 61 39 13 -1z m-804 -13 c-10 -13 -20 -22 -22 -20 -4 4 29
44 36 44 2 0 -4 -11 -14 -24z m515 -7 c-6 -16 -12 -28 -14 -26 -5 5 13 57 20
57 3 0 0 -14 -6 -31z m-211 5 c-3 -3 -12 -4 -19 -1 -8 3 -5 6 6 6 11 1 17 -2
13 -5z m618 -44 c-10 -11 -21 -18 -23 -15 -6 6 31 44 37 39 2 -2 -4 -13 -14
-24z m-877 -21 c-6 -16 -12 -28 -14 -26 -5 5 13 57 20 57 3 0 0 -14 -6 -31z
m443 -6 c-12 -20 -14 -14 -5 12 4 9 9 14 11 11 3 -2 0 -13 -6 -23z m-154 -24
c-35 -29 -67 -76 -67 -98 0 -5 7 -17 16 -25 8 -9 11 -16 6 -16 -5 0 -17 9 -26
19 -17 19 -17 22 5 60 12 22 38 52 58 66 49 34 53 32 8 -6z m533 24 c-8 -3
-22 -11 -30 -17 -13 -10 -13 -9 -1 7 7 9 21 17 30 16 13 0 14 -1 1 -6z m7465
-3 c3 -5 1 -10 -4 -10 -6 0 -11 5 -11 10 0 6 2 10 4 10 3 0 8 -4 11 -10z
m-7415 -10 c13 -9 13 -10 0 -11 -8 -1 -18 -1 -21 -1 -4 1 -10 -10 -13 -23 -9
-35 -23 -31 -24 7 0 20 2 27 7 19 6 -10 10 -9 14 3 7 18 16 20 37 6z m7355
-21 c-4 -5 0 -9 8 -9 16 0 43 -27 35 -35 -8 -9 -58 36 -58 51 0 8 5 12 10 9 6
-4 8 -11 5 -16z m-98 -47 c18 -26 28 -49 22 -51 -20 -6 26 -30 60 -31 37 0
101 -41 101 -65 0 -23 63 -139 90 -166 15 -14 34 -25 43 -23 10 1 15 -2 11 -7
-10 -16 -30 -9 -59 21 l-29 30 -1398 0 -1398 0 0 105 0 105 1010 0 1010 0 0
35 c0 31 5 38 30 49 48 20 81 9 115 -38 l31 -41 129 -3 129 -3 -22 24 c-13 14
-22 36 -22 56 0 26 5 34 30 45 50 21 81 10 117 -42z m-8156 21 c-12 -20 -14
-14 -5 12 4 9 9 14 11 11 3 -2 0 -13 -6 -23z m-154 -24 c-42 -34 -71 -83 -63
-105 6 -16 -10 -19 -19 -4 -10 16 35 87 74 115 49 34 53 32 8 -6z m588 1 c-10
-11 -21 -18 -23 -15 -6 6 31 44 37 39 2 -2 -4 -13 -14 -24z m7829 -1 c-3 -6
-7 -9 -8 -7 -1 2 -8 12 -16 22 -14 18 -14 19 8 7 12 -7 20 -17 16 -22z m118
-21 c-8 -8 -9 -4 -5 13 4 13 8 18 11 10 2 -7 -1 -18 -6 -23z m-7554 -9 c-6
-16 -12 -28 -14 -26 -5 5 13 57 20 57 3 0 0 -14 -6 -31z m7558 -30 c41 -29 77
-56 81 -62 3 -5 -32 17 -78 49 -102 70 -94 64 -85 64 4 0 41 -23 82 -51z m27
26 c-3 -9 -8 -14 -10 -11 -3 3 -2 9 2 15 9 16 15 13 8 -4z m-8448 -25 c-10
-11 -21 -18 -23 -15 -6 6 31 44 37 39 2 -2 -4 -13 -14 -24z m436 7 c-10 -9
-11 -8 -5 6 3 10 9 15 12 12 3 -3 0 -11 -7 -18z m4189 -142 c0 -148 -1 -155
-20 -155 -19 0 -20 7 -20 155 0 148 1 155 20 155 19 0 20 -7 20 -155z m300
134 c46 -26 80 -83 80 -134 0 -51 -34 -108 -80 -134 -139 -78 -296 72 -219
209 42 75 142 102 219 59z m-4518 -50 c-22 -40 -39 -43 -60 -9 l-16 25 23 -20
c28 -24 30 -24 49 15 8 17 17 29 19 26 2 -2 -5 -19 -15 -37z m429 14 c-12 -20
-14 -14 -5 12 4 9 9 14 11 11 3 -2 0 -13 -6 -23z m1841 4 c9 -15 7 -16 -67
-19 l-59 -3 -9 -40 c-7 -37 -4 -86 10 -121 4 -12 -85 -14 -644 -14 l-650 0
-13 28 -14 27 -7 -35 c-4 -21 -7 -26 -8 -13 -1 22 -21 44 -21 23 0 -6 -4 -9
-9 -5 -5 3 -12 -4 -16 -15 -9 -29 -22 -25 -22 7 0 15 7 33 16 40 14 10 13 11
-7 6 -13 -3 -39 -20 -58 -38 -19 -18 -34 -29 -34 -25 0 4 -15 11 -33 14 -31 6
-33 9 -47 73 -17 76 -15 107 6 99 8 -3 14 -1 14 4 0 6 -6 11 -12 12 -63 9 263
13 907 10 596 -2 771 -5 777 -15z m1248 -92 l0 -105 -307 -2 c-170 0 -318 0
-329 1 -15 1 -25 -8 -34 -29 -7 -17 -15 -29 -17 -26 -2 2 5 22 16 45 24 47 27
65 6 34 -14 -20 -65 -30 -65 -12 0 5 -6 9 -14 9 -8 0 -12 8 -9 23 4 18 -2 26
-22 35 -24 11 -27 11 -22 -3 5 -12 -3 -15 -46 -16 -81 -2 -82 -2 -85 -31 -3
-24 -8 -28 -37 -28 -24 0 -35 -5 -40 -18 -3 -11 -24 -34 -48 -52 l-42 -34 48
52 c26 28 47 55 48 59 0 4 2 16 4 25 3 17 -77 88 -100 88 -7 0 -18 -14 -25
-30 -7 -17 -15 -29 -17 -26 -2 2 5 22 16 45 25 48 27 64 5 33 -9 -13 -22 -21
-30 -18 -8 3 -14 0 -14 -7 -1 -7 -6 -5 -14 6 -7 9 -18 17 -23 17 -6 0 -8 10
-6 23 3 17 -2 26 -19 34 -17 9 132 12 600 12 l622 1 0 -105z m-3959 72 c-10
-9 -11 -8 -5 6 3 10 9 15 12 12 3 -3 0 -11 -7 -18z m749 19 c0 -2 -12 -11 -27
-20 l-28 -17 24 20 c23 21 31 25 31 17z m-778 -77 c-22 -40 -39 -43 -60 -9
l-16 25 23 -20 c28 -24 30 -24 49 15 8 17 17 29 19 26 2 -2 -5 -19 -15 -37z
m348 34 c-8 -3 -22 -11 -30 -17 -13 -10 -13 -9 -1 7 7 9 21 17 30 16 13 0 14
-1 1 -6z m8157 -8 c0 -8 -4 -12 -9 -9 -5 3 -6 10 -3 15 9 13 12 11 12 -6z
m-8108 -16 c-7 -4 -16 -6 -20 -3 -4 2 -10 -7 -13 -21 -9 -35 -23 -31 -24 7 0
19 2 27 7 20 6 -10 10 -10 20 2 7 8 19 12 28 9 11 -5 12 -7 2 -14z m466 -19
c-10 -11 -21 -18 -23 -15 -6 6 31 44 37 39 2 -2 -4 -13 -14 -24z m-582 -4
c-10 -13 -20 -22 -22 -20 -4 4 29 44 36 44 2 0 -4 -11 -14 -24z m324 -12 c-3
-3 -12 -4 -19 -1 -8 3 -5 6 6 6 11 1 17 -2 13 -5z m76 -13 c-2 -10 3 -25 12
-35 9 -9 12 -16 7 -16 -17 0 -42 37 -36 54 8 22 23 20 17 -3z m148 -24 c-10
-9 -11 -8 -5 6 3 10 9 15 12 12 3 -3 0 -11 -7 -18z m-503 -18 c-6 -16 -12 -28
-14 -26 -5 5 13 57 20 57 3 0 0 -14 -6 -31z m2512 -18 c-4 -16 -17 -38 -29
-50 -26 -26 -28 -12 -3 20 10 13 21 32 25 42 11 28 16 19 7 -12z m-2703 13
c-3 -3 -12 -4 -19 -1 -8 3 -5 6 6 6 11 1 17 -2 13 -5z m703 -1 c-8 -3 -21 -10
-28 -16 -9 -7 -11 -6 -6 7 3 9 16 16 28 15 14 0 16 -2 6 -6z m49 -24 c-7 -4
-16 -6 -20 -3 -4 2 -10 -7 -13 -21 -9 -35 -23 -31 -24 7 0 19 2 27 7 20 6 -10
10 -10 20 2 7 8 19 12 28 9 11 -5 12 -7 2 -14z m7801 2 c0 -5 -12 -11 -27 -14
-26 -5 -26 -4 -8 9 22 16 35 18 35 5z m-7912 -10 c13 11 13 8 -3 -11 -11 -14
-20 -26 -21 -28 0 -1 -6 10 -13 25 -11 23 -10 25 3 13 13 -10 19 -10 34 1z
m-477 -28 c-12 -20 -14 -14 -5 12 4 9 9 14 11 11 3 -2 0 -13 -6 -23z m4284 -8
c0 -22 -31 -33 -47 -17 -17 17 -1 44 24 40 15 -2 23 -10 23 -23z m-4405 12 c0
-2 -15 -13 -32 -26 l-33 -22 28 25 c26 24 37 31 37 23z m1018 -28 c-6 -16 -12
-28 -14 -26 -5 5 13 57 20 57 3 0 0 -14 -6 -31z m7487 11 c3 -5 1 -10 -4 -10
-6 0 -11 5 -11 10 0 6 2 10 4 10 3 0 8 -4 11 -10z m-8645 -7 c-8 -3 -22 -11
-30 -17 -13 -10 -13 -9 -1 7 7 9 21 17 30 16 13 0 14 -1 1 -6z m8285 -3 c3 -5
1 -10 -4 -10 -6 0 -11 5 -11 10 0 6 2 10 4 10 3 0 8 -4 11 -10z m-8215 -33 c0
-8 -3 -9 -8 -1 -12 19 -40 12 -47 -13 -8 -33 -22 -28 -23 9 0 19 2 27 7 20 6
-10 11 -10 20 2 10 12 18 13 32 5 10 -5 19 -15 19 -22z m708 2 c-6 -16 -12
-28 -14 -26 -5 5 13 57 20 57 3 0 0 -14 -6 -31z m7807 10 c-4 -5 0 -9 8 -9 16
0 43 -27 35 -35 -8 -9 -58 36 -58 51 0 8 5 12 10 9 6 -4 8 -11 5 -16z m-5775
1 c0 -5 -5 -10 -11 -10 -5 0 -7 5 -4 10 3 6 8 10 11 10 2 0 4 -4 4 -10z m595
-49 c-9 -22 -36 -54 -59 -72 l-41 -32 41 44 c48 51 63 77 58 103 -2 13 0 16 8
8 8 -8 6 -22 -7 -51z m4820 38 c-4 -5 0 -9 8 -9 16 0 43 -27 35 -35 -8 -9 -58
36 -58 51 0 8 5 12 10 9 6 -4 8 -11 5 -16z m-8292 -13 c-10 -13 -20 -22 -22
-20 -4 4 29 44 36 44 2 0 -4 -11 -14 -24z m3317 -5 c-4 -16 -17 -38 -29 -50
-26 -26 -28 -12 -3 20 10 13 21 32 25 42 11 28 16 19 7 -12z m-3025 -11 c-10
-11 -21 -18 -23 -15 -6 6 31 44 37 39 2 -2 -4 -13 -14 -24z m906 -7 c-12 -20
-14 -14 -5 12 4 9 9 14 11 11 3 -2 0 -13 -6 -23z m7463 -4 c-3 -6 -7 -9 -8 -7
-1 2 -8 12 -16 22 -14 18 -14 19 8 7 12 -7 20 -17 16 -22z m-360 -10 c-3 -6
-7 -9 -8 -7 -1 2 -8 12 -16 22 -14 18 -14 19 8 7 12 -7 20 -17 16 -22z m-7257
-10 c-21 -17 -44 -44 -53 -60 -16 -31 -11 -69 8 -69 6 0 8 -3 5 -6 -11 -11
-37 17 -37 40 0 29 30 71 70 101 48 35 52 31 7 -6z m7735 -1 c-8 -8 -9 -4 -5
13 4 13 8 18 11 10 2 -7 -1 -18 -6 -23z m-7961 -5 c-12 -20 -14 -14 -5 12 4 9
9 14 11 11 3 -2 0 -13 -6 -23z m1946 21 c-3 -3 -12 -4 -19 -1 -8 3 -5 6 6 6
11 1 17 -2 13 -5z m28 -16 c-4 -13 -13 -36 -21 -51 -7 -15 -10 -35 -7 -43 4
-10 0 -12 -11 -8 -20 7 -20 18 -3 33 8 6 19 29 26 51 6 22 14 40 17 40 3 0 2
-10 -1 -22z m5627 -10 c-8 -8 -9 -4 -5 13 4 13 8 18 11 10 2 -7 -1 -18 -6 -23z
m-8374 -9 c-6 -16 -12 -28 -14 -26 -5 5 13 57 20 57 3 0 0 -14 -6 -31z m8738
-20 c41 -29 77 -56 81 -62 3 -5 -32 17 -78 49 -102 70 -94 64 -85 64 4 0 41
-23 82 -51z m-8525 18 c-10 -9 -11 -8 -5 6 3 10 9 15 12 12 3 -3 0 -11 -7 -18z
m406 -8 c-35 -29 -67 -76 -67 -98 0 -5 7 -17 16 -25 8 -9 11 -16 6 -16 -5 0
-17 9 -26 19 -17 19 -17 22 5 60 12 22 38 52 58 66 49 34 53 32 8 -6z m7759
-20 c41 -29 77 -56 81 -62 3 -5 -32 17 -78 49 -102 70 -94 64 -85 64 4 0 41
-23 82 -51z m387 36 c-3 -9 -8 -14 -10 -11 -3 3 -2 9 2 15 9 16 15 13 8 -4z
m-360 -10 c-3 -9 -8 -14 -10 -11 -3 3 -2 9 2 15 9 16 15 13 8 -4z m712 -5 c3
-5 1 -10 -4 -10 -6 0 -11 5 -11 10 0 6 2 10 4 10 3 0 8 -4 11 -10z m-8000 -30
c-10 -11 -21 -18 -23 -15 -6 6 31 44 37 39 2 -2 -4 -13 -14 -24z m-931 -18
c-19 -40 -31 -47 -49 -32 -18 15 -20 34 -2 23 21 -13 32 -9 46 20 8 15 15 26
17 24 2 -2 -3 -18 -12 -35z m3096 28 c0 -5 -5 -10 -11 -10 -5 0 -7 5 -4 10 3
6 8 10 11 10 2 0 4 -4 4 -10z m5775 -11 c-4 -5 0 -9 8 -9 16 0 43 -27 35 -35
-8 -9 -58 36 -58 51 0 8 5 12 10 9 6 -4 8 -11 5 -16z m-6520 1 c3 -5 1 -10 -4
-10 -6 0 -11 5 -11 10 0 6 2 10 4 10 3 0 8 -4 11 -10z m350 0 c3 -5 1 -10 -4
-10 -6 0 -11 5 -11 10 0 6 2 10 4 10 3 0 8 -4 11 -10z m-2914 -27 c-12 -20
-14 -14 -5 12 4 9 9 14 11 11 3 -2 0 -13 -6 -23z m764 -3 c-10 -11 -21 -18
-23 -15 -6 6 31 44 37 39 2 -2 -4 -13 -14 -24z m8329 -21 c-3 -6 -7 -9 -8 -7
-1 2 -8 12 -16 22 -14 18 -14 19 8 7 12 -7 20 -17 16 -22z m-7983 -2 c-10 -9
-11 -8 -5 6 3 10 9 15 12 12 3 -3 0 -11 -7 -18z m1645 -18 c4 -8 -3 -9 -23 -5
-27 6 -32 4 -43 -24 -7 -17 -15 -29 -17 -26 -2 2 5 23 17 45 18 36 23 40 40
31 10 -5 22 -15 26 -21z m344 0 c0 -5 -11 -7 -23 -3 -20 4 -26 0 -37 -26 -7
-17 -15 -29 -17 -26 -2 2 5 23 17 45 18 36 23 40 40 31 11 -6 20 -15 20 -21z
m97 25 c-3 -3 -12 -4 -19 -1 -8 3 -5 6 6 6 11 1 17 -2 13 -5z m27 -16 c-4 -13
-11 -34 -17 -48 -14 -34 -16 -91 -4 -83 6 3 7 1 3 -5 -13 -21 -29 -13 -23 11
6 21 5 21 -15 -3 -17 -20 -20 -21 -14 -5 13 34 14 49 2 65 -9 13 -9 13 5 2 20
-15 31 -4 48 51 7 20 15 37 17 37 3 0 2 -10 -2 -22z m5988 -10 c-8 -8 -9 -4
-5 13 4 13 8 18 11 10 2 -7 -1 -18 -6 -23z m-425 7 c0 -8 -4 -12 -9 -9 -5 3
-6 10 -3 15 9 13 12 11 12 -6z m-8056 -18 c-10 -9 -11 -8 -5 6 3 10 9 15 12
12 3 -3 0 -11 -7 -18z m7696 8 c0 -8 -4 -12 -9 -9 -5 3 -6 10 -3 15 9 13 12
11 12 -6z m487 -35 c31 -27 54 -50 49 -50 -4 0 -24 15 -44 33 -20 18 -47 41
-60 50 -13 9 -19 16 -13 16 6 1 37 -21 68 -49z m302 -1 c41 -29 77 -56 81 -62
3 -5 -32 17 -78 49 -102 70 -94 64 -85 64 4 0 41 -23 82 -51z m-8134 0 c-22
-40 -39 -43 -60 -9 l-16 25 23 -20 c28 -24 30 -24 49 15 8 17 17 29 19 26 2
-2 -5 -19 -15 -37z m7472 -9 c31 -27 54 -50 49 -50 -4 0 -24 15 -44 33 -20 18
-47 41 -60 50 -13 9 -19 16 -13 16 6 1 37 -21 68 -49z m689 35 c-3 -9 -8 -14
-10 -11 -3 3 -2 9 2 15 9 16 15 13 8 -4z m-9278 -25 c-10 -11 -21 -18 -23 -15
-6 6 31 44 37 39 2 -2 -4 -13 -14 -24z m382 4 c-3 -3 -12 -4 -19 -1 -8 3 -5 6
6 6 11 1 17 -2 13 -5z m83 -4 c0 -5 -4 -10 -10 -10 -5 0 -10 5 -10 10 0 6 5
10 10 10 6 0 10 -4 10 -10z m272 -31 c-22 -40 -39 -43 -60 -9 l-16 25 23 -20
c28 -24 30 -24 49 15 8 17 17 29 19 26 2 -2 -5 -19 -15 -37z m8046 6 c-3 -3
-9 2 -12 12 -6 14 -5 15 5 6 7 -7 10 -15 7 -18z m-360 -10 c-3 -3 -9 2 -12 12
-6 14 -5 15 5 6 7 -7 10 -15 7 -18z m-7990 -16 c-6 -16 -12 -28 -14 -26 -5 5
13 57 20 57 3 0 0 -14 -6 -31z m2432 6 c0 -25 -39 -79 -77 -109 l-38 -29 41
44 c48 50 63 77 59 102 -2 9 1 15 6 11 5 -3 9 -11 9 -19z m-2899 -8 c-10 -9
-11 -8 -5 6 3 10 9 15 12 12 3 -3 0 -11 -7 -18z m2729 -6 c-4 -16 -17 -38 -29
-50 -26 -26 -28 -12 -3 20 10 13 21 32 25 42 11 28 16 19 7 -12z m350 0 c-4
-16 -17 -38 -29 -50 -26 -26 -28 -12 -3 20 10 13 21 32 25 42 11 28 16 19 7
-12z m5764 -16 c8 -19 20 -35 25 -35 6 0 11 -5 11 -12 0 -19 -38 22 -49 53
-14 41 -4 36 13 -6z m756 20 c0 -8 -4 -15 -10 -15 -5 0 -7 7 -4 15 4 8 8 15
10 15 2 0 4 -7 4 -15z m-1120 -20 c0 -22 63 -82 83 -79 9 1 15 -2 11 -7 -10
-17 -30 -9 -61 24 -31 31 -64 95 -43 82 6 -3 10 -13 10 -20z m573 9 c8 -9 -18
-34 -35 -34 -8 0 -20 -6 -28 -12 -12 -11 -12 -10 -1 4 7 10 21 20 32 23 11 4
17 11 14 16 -7 10 8 13 18 3z m-9081 -45 c-22 -40 -39 -43 -60 -9 l-16 25 23
-20 c28 -24 30 -24 49 15 8 17 17 29 19 26 2 -2 -5 -19 -15 -37z m8721 35 c8
-9 -18 -34 -35 -34 -8 0 -20 -6 -28 -12 -12 -11 -12 -10 -1 4 7 10 21 20 32
23 11 4 17 11 14 16 -7 10 8 13 18 3z m614 -9 c0 -8 -4 -12 -9 -9 -5 3 -6 10
-3 15 9 13 12 11 12 -6z m-8020 -1 c-3 -3 -12 -4 -19 -1 -8 3 -5 6 6 6 11 1
17 -2 13 -5z m8147 -44 c31 -27 54 -50 49 -50 -4 0 -24 15 -44 33 -20 18 -47
41 -60 50 -13 9 -19 16 -13 16 6 1 37 -21 68 -49z m-8993 13 c-12 -20 -14 -14
-5 12 4 9 9 14 11 11 3 -2 0 -13 -6 -23z m2754 17 c3 -5 1 -10 -4 -10 -6 0
-11 5 -11 10 0 6 2 10 4 10 3 0 8 -4 11 -10z m-2125 -7 c-8 -3 -22 -11 -30
-17 -13 -10 -13 -9 -1 7 7 9 21 17 30 16 13 0 14 -1 1 -6z m-783 -34 c-35 -29
-67 -76 -67 -98 0 -5 7 -17 16 -25 8 -9 11 -16 6 -16 -5 0 -17 9 -26 19 -17
19 -17 22 5 60 12 22 38 52 58 66 49 34 53 32 8 -6z m620 25 c-3 -3 -12 -4
-19 -1 -8 3 -5 6 6 6 11 1 17 -2 13 -5z m212 -15 c-7 -4 -16 -6 -20 -3 -4 2
-10 -7 -13 -21 -9 -35 -23 -31 -24 7 0 19 2 27 7 20 6 -10 10 -10 20 2 7 8 19
12 28 9 11 -5 12 -7 2 -14z m-116 -23 c-10 -13 -20 -22 -22 -20 -4 4 29 44 36
44 2 0 -4 -11 -14 -24z m8265 -1 c-3 -3 -9 2 -12 12 -6 14 -5 15 5 6 7 -7 10
-15 7 -18z m-6528 5 c0 -5 -5 -10 -11 -10 -5 0 -7 5 -4 10 3 6 8 10 11 10 2 0
4 -4 4 -10z m640 -21 c0 -5 -11 -7 -23 -3 -20 4 -26 0 -37 -26 -7 -17 -15 -29
-17 -26 -2 2 5 23 17 45 18 36 23 40 40 31 11 -6 20 -15 20 -21z m-2640 4 c-8
-3 -22 -11 -30 -17 -13 -10 -13 -9 -1 7 7 9 21 17 30 16 13 0 14 -1 1 -6z
m8155 -3 c3 -5 1 -10 -4 -10 -6 0 -11 5 -11 10 0 6 2 10 4 10 3 0 8 -4 11 -10z
m-8490 -30 c-10 -11 -21 -18 -23 -15 -6 6 31 44 37 39 2 -2 -4 -13 -14 -24z
m384 9 c-7 -4 -16 -6 -20 -3 -4 2 -10 -7 -13 -21 -9 -35 -23 -31 -24 7 0 19 2
27 7 20 6 -10 10 -10 20 2 7 8 19 12 28 9 11 -5 12 -7 2 -14z m8501 -4 c0 -22
63 -82 83 -79 9 1 15 -2 11 -7 -10 -17 -30 -9 -61 24 -31 31 -64 95 -43 82 6
-3 10 -13 10 -20z m-455 -6 c-4 -5 0 -9 8 -9 16 0 43 -27 35 -35 -8 -9 -58 36
-58 51 0 8 5 12 10 9 6 -4 8 -11 5 -16z m-8728 5 c-3 -3 -12 -4 -19 -1 -8 3
-5 6 6 6 11 1 17 -2 13 -5z m566 -18 c-10 -13 -20 -22 -22 -20 -4 4 29 44 36
44 2 0 -4 -11 -14 -24z m375 -7 c-6 -16 -12 -28 -14 -26 -5 5 13 57 20 57 3 0
0 -14 -6 -31z m8455 25 c3 -4 0 -13 -8 -20 -8 -8 -11 -22 -8 -30 5 -14 3 -15
-17 -4 -12 7 -20 7 -16 2 3 -6 2 -13 -3 -16 -5 -3 -12 1 -15 9 -4 10 5 22 24
34 17 10 27 21 23 24 -3 4 -2 7 4 7 5 0 12 -3 16 -6z m-6876 -10 c-3 -3 -12
-4 -19 -1 -8 3 -5 6 6 6 11 1 17 -2 13 -5z m27 -16 c-4 -13 -11 -34 -17 -48
-14 -34 -16 -91 -4 -83 6 3 7 1 3 -5 -11 -18 -36 -15 -30 3 5 11 2 13 -10 9
-22 -9 -20 4 7 40 13 17 29 48 36 69 7 20 15 37 17 37 3 0 2 -10 -2 -22z m323
16 c-3 -3 -12 -4 -19 -1 -8 3 -5 6 6 6 11 1 17 -2 13 -5z m27 -16 c-4 -13 -11
-34 -17 -48 -14 -34 -16 -91 -4 -83 6 3 7 1 3 -5 -11 -18 -36 -15 -30 3 5 11
2 13 -10 9 -22 -9 -20 4 7 40 13 17 29 48 36 69 7 20 15 37 17 37 3 0 2 -10
-2 -22z m5840 -29 c-3 -6 -7 -9 -8 -7 -1 2 -8 12 -16 22 -14 18 -14 19 8 7 12
-7 20 -17 16 -22z m-8473 -2 c-10 -9 -11 -8 -5 6 3 10 9 15 12 12 3 -3 0 -11
-7 -18z m3074 -36 c-9 -22 -36 -54 -59 -72 l-41 -32 41 44 c48 51 63 77 58
103 -2 13 0 16 8 8 8 -8 6 -22 -7 -51z m-155 20 c-4 -16 -17 -38 -29 -50 -26
-26 -28 -12 -3 20 10 13 21 32 25 42 11 28 16 19 7 -12z m5672 -3 c-8 -8 -9
-4 -5 13 4 13 8 18 11 10 2 -7 -1 -18 -6 -23z m-8244 -9 c-6 -16 -12 -28 -14
-26 -5 5 13 57 20 57 3 0 0 -14 -6 -31z m8854 -1 c-8 -8 -9 -4 -5 13 4 13 8
18 11 10 2 -7 -1 -18 -6 -23z m-8551 -5 c-12 -20 -14 -14 -5 12 4 9 9 14 11
11 3 -2 0 -13 -6 -23z m7945 -24 c41 -29 77 -56 81 -62 3 -5 -32 17 -78 49
-102 70 -94 64 -85 64 4 0 41 -23 82 -51z m-8624 0 c-22 -40 -39 -43 -60 -9
l-16 25 23 -20 c28 -24 30 -24 49 15 8 17 17 29 19 26 2 -2 -5 -19 -15 -37z
m5272 32 c7 -11 -41 -24 -55 -16 -5 4 -7 11 -4 16 8 12 52 12 59 0z m3379 -6
c-3 -9 -8 -14 -10 -11 -3 3 -2 9 2 15 9 16 15 13 8 -4z m583 -36 c41 -29 77
-56 81 -62 3 -5 -32 17 -78 49 -102 70 -94 64 -85 64 4 0 41 -23 82 -51z
m-8709 10 c-35 -29 -67 -76 -67 -98 0 -5 7 -17 16 -25 8 -9 11 -16 6 -16 -5 0
-17 9 -26 19 -17 19 -17 22 5 60 12 22 38 52 58 66 49 34 53 32 8 -6z m4838
11 c25 -13 31 -18 15 -15 -14 3 -40 8 -57 12 -18 3 -33 10 -33 14 0 15 33 10
75 -11z m3898 5 c-3 -9 -8 -14 -10 -11 -3 3 -2 9 2 15 9 16 15 13 8 -4z
m-4073 -4 c0 -15 -18 -23 -25 -11 -7 12 -25 4 -25 -12 0 -5 7 -8 14 -5 19 7
32 -29 17 -47 -6 -7 -8 -15 -5 -18 10 -10 44 -171 43 -202 -1 -32 9 -131 16
-153 8 -23 -7 -43 -31 -43 -13 0 -24 5 -24 11 0 6 9 8 23 4 17 -6 19 -4 11 5
-6 6 -30 14 -53 17 -32 4 -45 12 -61 38 -11 18 -20 43 -21 56 0 23 -1 23 -10
4 -8 -16 -8 -14 -5 11 3 18 12 47 21 65 8 19 13 26 10 17 -3 -11 1 -18 10 -18
11 0 12 6 7 23 -4 12 -5 42 -1 67 3 25 7 34 8 20 2 -35 15 -52 33 -45 19 7 30
42 17 51 -5 3 -7 9 -4 14 3 4 -2 13 -11 20 -11 10 -18 10 -26 2 -16 -16 -25
-15 -32 3 -3 8 -2 14 2 14 18 -3 26 2 14 9 -9 7 -10 15 -2 33 10 22 10 23 6 1
-5 -25 9 -21 24 9 8 14 8 19 -1 17 -18 -4 -24 33 -7 43 18 12 68 11 68 0z
m-4839 -48 c-12 -20 -14 -14 -5 12 4 9 9 14 11 11 3 -2 0 -13 -6 -23z m4884
17 c3 -5 1 -10 -4 -10 -6 0 -11 5 -11 10 0 6 2 10 4 10 3 0 8 -4 11 -10z m234
-47 c120 -140 80 -345 -86 -435 -53 -29 -153 -48 -153 -29 0 6 11 11 25 11 14
0 25 5 25 10 0 6 19 10 42 10 49 0 132 44 124 66 -3 7 -1 16 5 20 18 10 28 48
15 57 -8 5 -6 11 6 21 15 11 17 26 14 90 -2 42 -6 79 -9 83 -4 3 -2 12 5 20 9
11 7 15 -10 20 -12 3 -24 13 -27 22 -2 9 -16 28 -30 43 -23 24 -21 34 7 37 3
1 25 -20 47 -46z m-4824 7 c-10 -11 -21 -18 -23 -15 -6 6 31 44 37 39 2 -2 -4
-13 -14 -24z m2315 10 c0 -5 -5 -10 -11 -10 -5 0 -7 5 -4 10 3 6 8 10 11 10 2
0 4 -4 4 -10z m2088 -10 c-7 -11 -17 -20 -22 -20 -5 0 -1 9 9 20 10 11 20 20
22 20 2 0 -2 -9 -9 -20z m3892 5 c0 -8 -4 -15 -10 -15 -5 0 -7 7 -4 15 4 8 8
15 10 15 2 0 4 -7 4 -15z m610 -10 c0 -8 -4 -15 -10 -15 -5 0 -7 7 -4 15 4 8
8 15 10 15 2 0 4 -7 4 -15z m-903 -20 c0 -8 -4 -12 -9 -9 -5 3 -6 10 -3 15 9
13 12 11 12 -6z m-8510 -1 c-3 -3 -12 -4 -19 -1 -8 3 -5 6 6 6 11 1 17 -2 13
-5z m13 -26 c-24 -40 -25 -52 -4 -72 8 -9 11 -16 6 -16 -5 0 -17 9 -26 19 -17
19 -17 22 5 60 12 23 26 41 31 41 4 0 -1 -15 -12 -32z m8624 -18 c31 -27 54
-50 49 -50 -4 0 -24 15 -44 33 -20 18 -47 41 -60 50 -13 9 -19 16 -13 16 6 1
37 -21 68 -49z m483 35 c0 -8 -4 -12 -9 -9 -5 3 -6 10 -3 15 9 13 12 11 12 -6z
m-8942 -25 c-10 -11 -21 -18 -23 -15 -6 6 31 44 37 39 2 -2 -4 -13 -14 -24z
m296 7 c-10 -9 -11 -8 -5 6 3 10 9 15 12 12 3 -3 0 -11 -7 -18z m8773 -27 c31
-27 54 -50 49 -50 -4 0 -24 15 -44 33 -20 18 -47 41 -60 50 -13 9 -19 16 -13
16 6 1 37 -21 68 -49z m-6537 34 c-3 -3 -12 -4 -19 -1 -8 3 -5 6 6 6 11 1 17
-2 13 -5z m27 -16 c-4 -13 -11 -34 -17 -48 -14 -34 -16 -91 -4 -83 6 3 7 1 3
-5 -11 -18 -36 -15 -30 3 5 11 2 13 -10 9 -22 -9 -20 4 7 40 13 17 29 48 36
69 7 20 15 37 17 37 3 0 2 -10 -2 -22z m2131 -7 c-3 -12 -10 -21 -15 -21 -5 0
-4 11 2 25 13 29 23 26 13 -4z m-4423 -42 c-22 -40 -39 -43 -60 -9 l-16 25 23
-20 c28 -24 30 -24 49 15 8 17 17 29 19 26 2 -2 -5 -19 -15 -37z m4648 31 c-8
-5 -19 -10 -25 -10 -5 0 -3 5 5 10 8 5 20 10 25 10 6 0 3 -5 -5 -10z m3378
-15 c-3 -3 -9 2 -12 12 -6 14 -5 15 5 6 7 -7 10 -15 7 -18z m610 -10 c-3 -3
-9 2 -12 12 -6 14 -5 15 5 6 7 -7 10 -15 7 -18z m-8937 -8 c-10 -9 -11 -8 -5
6 3 10 9 15 12 12 3 -3 0 -11 -7 -18z m4964 3 c-3 -5 -14 -10 -23 -9 -14 0
-13 2 3 9 27 11 27 11 20 0z m-266 -45 c-5 -25 -6 -52 -3 -60 4 -8 1 -15 -5
-15 -6 0 -11 10 -11 23 0 38 12 97 20 97 4 0 4 -20 -1 -45z m3651 20 c0 -22
63 -82 83 -79 9 1 15 -2 11 -7 -10 -17 -30 -9 -61 24 -31 31 -64 95 -43 82 6
-3 10 -13 10 -20z m610 -10 c0 -22 63 -82 83 -79 9 1 15 -2 11 -7 -10 -17 -30
-9 -61 24 -31 31 -64 95 -43 82 6 -3 10 -13 10 -20z m-8988 -26 c-22 -40 -39
-43 -60 -9 l-16 25 23 -20 c28 -24 30 -24 49 15 8 17 17 29 19 26 2 -2 -5 -19
-15 -37z m8591 35 c8 -9 -18 -34 -35 -34 -8 0 -20 -6 -28 -12 -12 -11 -12 -10
-1 4 7 10 21 20 32 23 11 4 17 11 14 16 -7 10 8 13 18 3z m610 -10 c8 -9 -18
-34 -35 -34 -8 0 -20 -6 -28 -12 -12 -11 -12 -10 -1 4 7 10 21 20 32 23 11 4
17 11 14 16 -7 10 8 13 18 3z m-8736 -50 c-3 -3 -12 -4 -19 -1 -8 3 -5 6 6 6
11 1 17 -2 13 -5z m5198 -54 c4 -6 -7 -10 -24 -10 -17 0 -31 5 -31 10 0 6 11
10 24 10 14 0 28 -4 31 -10z m-5528 -6 c-3 -3 -12 -4 -19 -1 -8 3 -5 6 6 6 11
1 17 -2 13 -5z m5613 -10 c23 -9 39 -19 36 -21 -5 -6 -88 18 -100 29 -16 14
21 9 64 -8z m-205 -4 c-3 -5 -14 -10 -23 -10 -15 0 -15 2 -2 10 20 13 33 13
25 0z m38 -26 c-7 -3 -10 -19 -7 -39 2 -19 -1 -37 -6 -40 -6 -4 -8 -11 -4 -16
12 -19 44 -173 43 -203 -1 -32 9 -131 16 -153 6 -19 -5 -43 -21 -43 -8 0 -14
-4 -14 -10 0 -5 -6 -10 -14 -10 -9 0 -12 7 -9 20 4 15 11 19 24 15 11 -4 19
-2 19 4 0 10 -22 15 -57 14 -19 -1 -15 15 5 20 11 3 9 5 -8 6 -20 1 -26 -4
-27 -21 -1 -12 3 -28 9 -35 6 -7 6 -13 1 -13 -5 0 -17 -26 -26 -58 -19 -70
-74 -136 -144 -174 -53 -29 -153 -48 -153 -29 0 6 11 11 25 11 14 0 25 5 25
10 0 6 19 10 42 10 49 0 132 44 124 66 -3 7 -1 16 5 20 18 10 28 48 15 57 -8
5 -6 11 6 21 21 15 22 80 1 112 -7 11 -10 23 -7 26 8 9 12 58 4 58 -3 0 -13
12 -21 28 -23 45 -43 69 -57 64 -6 -2 -16 8 -22 22 -6 18 -20 28 -40 33 -48 9
-46 24 2 21 40 -3 43 -1 46 25 5 43 18 31 14 -13 -3 -24 0 -40 7 -40 6 0 8 -7
5 -15 -4 -10 -2 -13 7 -10 8 3 31 -12 53 -32 31 -29 37 -32 32 -15 -4 12 -2
30 4 39 11 17 11 17 6 1 -3 -12 0 -18 9 -18 11 0 12 6 7 23 -4 12 -5 42 -1 67
3 25 7 34 8 20 2 -35 15 -52 33 -45 19 7 30 42 17 51 -5 3 -7 9 -4 14 3 4 -2
13 -11 20 -11 10 -18 10 -26 2 -16 -16 -25 -15 -32 3 -3 8 -2 14 2 14 18 -3
26 2 15 9 -16 10 -5 52 12 46 7 -3 16 0 21 7 4 7 3 10 -4 5 -6 -3 -14 -1 -18
5 -3 6 0 15 7 20 8 5 16 3 21 -4 7 -11 22 -3 24 14 3 17 4 19 17 18 8 0 9 -2
0 -5z m276 -51 c120 -140 80 -345 -86 -435 -53 -29 -153 -48 -153 -29 0 6 11
11 25 11 14 0 25 5 25 10 0 6 19 10 43 10 40 0 70 10 68 24 -3 19 0 26 10 26
5 0 7 -4 4 -10 -9 -15 9 -12 31 5 19 15 19 15 -1 31 -16 13 -17 16 -3 11 18
-6 43 24 31 37 -3 3 -1 6 7 6 10 0 10 3 0 15 -11 14 -7 19 13 16 9 -1 3 166
-6 176 -4 3 -2 12 5 20 9 11 7 15 -10 20 -12 3 -24 13 -27 22 -2 9 -16 28 -30
43 -23 24 -21 34 7 37 3 1 25 -20 47 -46z m-1034 -53 c7 -22 6 -23 -8 -10 -16
16 -21 38 -17 80 2 21 3 20 10 -10 5 -19 11 -46 15 -60z m613 60 c-7 -11 -17
-20 -22 -20 -5 0 -1 9 9 20 10 11 20 20 22 20 2 0 -2 -9 -9 -20z m197 10 c3
-5 1 -10 -4 -10 -6 0 -11 5 -11 10 0 6 2 10 4 10 3 0 8 -4 11 -10z m-485 -34
c0 -2 -7 -6 -15 -10 -8 -3 -15 -1 -15 4 0 6 7 10 15 10 8 0 15 -2 15 -4z m245
-45 c-3 -12 -10 -21 -15 -21 -5 0 -4 11 2 25 13 29 23 26 13 -4z m-740 9 c4
-6 -7 -10 -24 -10 -17 0 -31 5 -31 10 0 6 11 10 24 10 14 0 28 -4 31 -10z m85
-16 c23 -9 39 -19 36 -21 -5 -6 -88 18 -100 29 -16 14 21 9 64 -8z m-208 -25
c-4 -24 -1 -30 9 -27 8 3 14 11 14 18 0 7 6 14 13 16 7 1 8 0 3 -2 -5 -3 -7
-20 -5 -39 2 -19 -1 -37 -6 -40 -6 -4 -8 -11 -4 -16 12 -19 44 -173 43 -203
-1 -32 9 -131 16 -153 8 -23 -7 -43 -31 -43 -13 0 -24 5 -24 11 0 6 9 8 20 4
11 -3 20 -2 20 3 0 5 -17 13 -37 17 -27 5 -33 9 -22 16 10 6 6 9 -16 9 -23 0
-27 -3 -15 -10 8 -5 10 -10 3 -10 -15 0 -53 65 -54 93 0 21 -1 21 -10 2 -8
-16 -8 -14 -5 11 3 18 12 47 21 65 8 19 13 26 10 17 -3 -11 1 -18 10 -18 11 0
12 6 7 23 -4 12 -5 42 -1 67 3 25 7 34 8 20 2 -35 15 -52 33 -45 19 7 30 42
17 51 -5 3 -7 9 -4 14 3 4 -2 13 -11 20 -11 10 -18 10 -26 2 -16 -16 -25 -15
-32 3 -3 8 -2 14 2 14 18 -3 26 2 14 9 -9 7 -10 15 -2 33 10 22 10 23 6 2 -5
-29 -2 -29 18 2 10 15 12 24 5 23 -6 -2 -14 3 -16 10 -3 6 0 12 6 12 6 0 11 7
11 15 0 8 -6 15 -12 15 -9 0 -8 4 2 10 24 15 27 12 22 -21z m1098 -9 c-8 -5
-19 -10 -25 -10 -5 0 -3 5 5 10 8 5 20 10 25 10 6 0 3 -5 -5 -10z m-781 -47
c120 -140 80 -345 -86 -435 -53 -29 -153 -48 -153 -29 0 6 11 11 25 11 14 0
25 5 25 10 0 6 19 10 42 10 48 0 132 44 124 65 -2 8 2 19 10 26 8 6 12 20 9
30 -3 9 -1 20 5 24 6 3 8 11 5 16 -4 5 -1 9 4 9 12 0 9 155 -2 167 -4 3 -2 12
5 20 9 11 7 15 -10 20 -12 3 -24 13 -27 22 -2 9 -16 28 -30 43 -23 24 -21 34
7 37 3 1 25 -20 47 -46z m91 37 c0 -5 -5 -10 -11 -10 -5 0 -7 5 -4 10 3 6 8
10 11 10 2 0 4 -4 4 -10z m-315 -10 c3 -5 1 -10 -4 -10 -6 0 -11 5 -11 10 0 6
2 10 4 10 3 0 8 -4 11 -10z m-197 -20 c-7 -11 -17 -20 -22 -20 -5 0 -1 9 9 20
10 11 20 20 22 20 2 0 -2 -9 -9 -20z m1217 10 c-3 -5 -14 -10 -23 -9 -14 0
-13 2 3 9 27 11 27 11 20 0z m-391 -19 c7 -11 -41 -24 -55 -16 -5 4 -7 11 -4
16 8 12 52 12 59 0z m-84 -20 c0 -15 -18 -23 -25 -11 -7 12 -25 4 -25 -12 0
-5 7 -8 14 -5 19 7 32 -29 17 -47 -6 -7 -8 -15 -5 -18 10 -10 44 -171 43 -202
-1 -32 9 -131 16 -153 8 -23 -7 -43 -31 -43 -13 0 -24 5 -24 11 0 6 9 8 23 4
17 -6 19 -4 11 5 -6 6 -30 14 -53 17 -32 4 -45 12 -61 38 -11 18 -20 43 -21
56 0 23 -1 23 -10 4 -8 -16 -8 -14 -5 11 3 18 12 47 21 65 8 19 13 26 10 17
-3 -11 1 -18 10 -18 11 0 12 6 7 23 -4 12 -5 42 -1 67 3 25 7 34 8 20 2 -35
15 -52 33 -45 19 7 30 42 17 51 -5 3 -7 9 -4 14 3 4 -2 13 -11 20 -11 10 -18
10 -26 2 -16 -16 -25 -15 -32 3 -3 8 -2 14 2 14 18 -3 26 2 14 9 -9 7 -10 15
-2 33 10 22 10 23 6 1 -5 -26 9 -20 25 10 8 15 8 19 0 14 -16 -11 -25 22 -11
39 14 16 70 21 70 6z m-785 -40 c-3 -12 -10 -21 -15 -21 -5 0 -4 11 2 25 13
29 23 26 13 -4z m830 9 c3 -5 1 -10 -4 -10 -6 0 -11 5 -11 10 0 6 2 10 4 10 3
0 8 -4 11 -10z m-187 -40 c-7 -11 -17 -20 -22 -20 -5 0 -1 9 9 20 10 11 20 20
22 20 2 0 -2 -9 -9 -20z m-408 0 c-8 -5 -19 -10 -25 -10 -5 0 -3 5 5 10 8 5
20 10 25 10 6 0 3 -5 -5 -10z m-261 -55 c-5 -25 -6 -52 -3 -60 4 -8 1 -15 -5
-15 -6 0 -11 10 -11 23 0 38 12 97 20 97 4 0 4 -20 -1 -45z m276 25 c-3 -5
-14 -10 -23 -9 -14 0 -13 2 3 9 27 11 27 11 20 0z m350 -39 c-3 -12 -10 -21
-15 -21 -5 0 -4 11 2 25 13 29 23 26 13 -4z m225 -11 c-8 -5 -19 -10 -25 -10
-5 0 -3 5 5 10 8 5 20 10 25 10 6 0 3 -5 -5 -10z m15 -30 c-3 -5 -14 -10 -23
-9 -14 0 -13 2 3 9 27 11 27 11 20 0z m-266 -45 c-5 -25 -6 -52 -3 -60 4 -8 1
-15 -5 -15 -6 0 -11 10 -11 23 0 38 12 97 20 97 4 0 4 -20 -1 -45z m-500 -135
c4 0 8 -7 8 -15 0 -17 -9 -19 -23 -5 -5 5 -8 27 -5 47 l6 38 3 -32 c2 -18 7
-33 11 -33z m328 4 c-3 -3 -12 -4 -19 -1 -8 3 -5 6 6 6 11 1 17 -2 13 -5z
m268 -114 c7 -22 6 -23 -8 -10 -16 16 -21 38 -17 80 2 21 3 20 10 -10 5 -19
11 -46 15 -60z m-485 40 c0 -5 -5 -10 -11 -10 -5 0 -7 5 -4 10 3 6 8 10 11 10
2 0 4 -4 4 -10z m810 -4 c0 -2 -7 -6 -15 -10 -8 -3 -15 -1 -15 4 0 6 7 10 15
10 8 0 15 -2 15 -4z m-210 -96 c0 -5 -5 -10 -11 -10 -5 0 -7 5 -4 10 3 6 8 10
11 10 2 0 4 -4 4 -10z"/>
<path d="M5457 7384 c-12 -12 -8 -42 6 -47 21 -8 39 8 35 29 -3 19 -29 30 -41
18z"/>
<path d="M8238 7063 c-14 -2 -32 -11 -38 -18 -10 -12 -3 -11 36 2 35 12 49 13
52 5 4 -13 22 -6 22 9 0 9 -21 10 -72 2z"/>
<path d="M8075 6990 c-3 -6 1 -7 9 -4 18 7 21 14 7 14 -6 0 -13 -4 -16 -10z"/>
<path d="M1006 5244 c-20 -20 -9 -44 20 -44 19 0 24 5 24 24 0 29 -24 40 -44
20z"/>
<path d="M1046 4724 c-20 -20 -9 -44 20 -44 19 0 24 5 24 24 0 29 -24 40 -44
20z"/>
<path d="M1910 5091 l0 -641 260 0 c282 0 363 10 465 55 180 79 334 255 386
440 20 70 17 226 -5 300 -52 174 -175 325 -336 409 -119 63 -153 68 -477 73
l-293 5 0 -641z"/>
<path d="M1716 4314 c-20 -20 -9 -44 20 -44 19 0 24 5 24 24 0 29 -24 40 -44
20z"/>
<path d="M7230 5090 l0 -640 260 0 c282 0 363 10 465 55 203 89 366 295 396
499 35 237 -93 496 -312 628 -138 83 -223 98 -571 98 l-238 0 0 -640z"/>
<path d="M1556 5114 c-20 -20 -9 -44 20 -44 19 0 24 5 24 24 0 29 -24 40 -44
20z"/>
<path d="M3980 4708 c0 -5 44 -7 98 -6 100 1 88 5 -31 10 -37 2 -67 0 -67 -4z"/>
<path d="M4210 4710 l-35 -7 38 -2 c20 0 37 4 37 9 0 6 -1 9 -2 9 -2 -1 -19
-5 -38 -9z"/>
<path d="M1526 4714 c-20 -20 -9 -44 20 -44 19 0 24 5 24 24 0 29 -24 40 -44
20z"/>
<path d="M666 4364 c-20 -20 -9 -44 20 -44 19 0 24 5 24 24 0 29 -24 40 -44
20z"/>
<path d="M1146 4364 c-20 -20 -9 -44 20 -44 19 0 24 5 24 24 0 29 -24 40 -44
20z"/>
<path d="M1416 4094 c-20 -20 -9 -44 20 -44 19 0 24 5 24 24 0 29 -24 40 -44
20z"/>
<path d="M5014 3326 c-29 -29 -34 -41 -34 -81 0 -40 5 -52 34 -81 30 -30 40
-34 86 -34 46 0 56 4 86 34 29 29 34 41 34 81 0 40 -5 52 -34 81 -30 30 -40
34 -86 34 -46 0 -56 -4 -86 -34z"/>
<path d="M3090 3296 c0 -2 7 -7 16 -10 8 -3 12 -2 9 4 -6 10 -25 14 -25 6z"/>
<path d="M3540 3176 c0 -2 7 -7 16 -10 8 -3 12 -2 9 4 -6 10 -25 14 -25 6z"/>
<path d="M2706 2512 c-3 -5 1 -9 9 -9 8 0 12 4 9 9 -3 4 -7 8 -9 8 -2 0 -6 -4
-9 -8z"/>
<path d="M3056 2512 c-3 -5 1 -9 9 -9 8 0 12 4 9 9 -3 4 -7 8 -9 8 -2 0 -6 -4
-9 -8z"/>
<path d="M5593 2303 c11 -3 16 -11 13 -19 -3 -8 3 -25 14 -36 l20 -21 -9 31
c-13 43 -20 52 -39 51 -15 -1 -14 -2 1 -6z"/>
<path d="M5566 2290 c7 -8 14 -24 17 -35 4 -19 5 -19 6 1 0 12 -7 28 -16 35
-16 12 -17 12 -7 -1z"/>
<path d="M5627 2204 c-6 -10 9 -42 16 -34 3 3 1 14 -3 24 -3 11 -9 15 -13 10z"/>
<path d="M5543 2173 c9 -2 25 -2 35 0 9 3 1 5 -18 5 -19 0 -27 -2 -17 -5z"/>
<path d="M5630 2131 c0 -17 5 -33 10 -36 7 -4 10 6 8 29 -3 43 -18 49 -18 7z"/>
<path d="M5573 2103 c9 -2 23 -2 30 0 6 3 -1 5 -18 5 -16 0 -22 -2 -12 -5z"/>
<path d="M3266 2302 c-3 -5 1 -9 9 -9 8 0 12 4 9 9 -3 4 -7 8 -9 8 -2 0 -6 -4
-9 -8z"/>
<path d="M6243 1933 c13 -3 16 -10 11 -25 -4 -14 -2 -18 5 -14 6 4 11 1 11 -8
0 -8 4 -17 9 -21 6 -3 6 6 1 24 -12 42 -19 51 -38 50 -15 -1 -15 -2 1 -6z"/>
<path d="M6216 1920 c7 -8 14 -24 17 -35 4 -19 5 -19 6 1 0 12 -7 28 -16 35
-16 12 -17 12 -7 -1z"/>
<path d="M6277 1834 c-6 -10 9 -42 16 -34 3 3 1 14 -3 24 -3 11 -9 15 -13 10z"/>
<path d="M6208 1803 c6 -2 18 -2 25 0 6 3 1 5 -13 5 -14 0 -19 -2 -12 -5z"/>
<path d="M6280 1761 c0 -17 5 -33 10 -36 7 -4 10 6 8 29 -3 43 -18 49 -18 7z"/>
<path d="M5233 1793 c11 -3 16 -11 13 -19 -3 -8 3 -25 14 -36 l20 -21 -9 31
c-13 43 -20 52 -39 51 -15 -1 -14 -2 1 -6z"/>
<path d="M5206 1780 c7 -8 14 -24 17 -35 4 -19 5 -19 6 1 0 12 -7 28 -16 35
-16 12 -17 12 -7 -1z"/>
<path d="M5267 1694 c-6 -10 9 -42 16 -34 3 3 1 14 -3 24 -3 11 -9 15 -13 10z"/>
<path d="M5183 1663 c9 -2 25 -2 35 0 9 3 1 5 -18 5 -19 0 -27 -2 -17 -5z"/>
<path d="M5270 1621 c0 -17 5 -33 10 -36 7 -4 10 6 8 29 -3 43 -18 49 -18 7z"/>
<path d="M5823 1713 c11 -3 16 -11 13 -19 -3 -8 3 -25 14 -36 l20 -21 -9 31
c-13 43 -20 52 -39 51 -15 -1 -14 -2 1 -6z"/>
<path d="M5796 1700 c7 -8 14 -24 17 -35 4 -19 5 -19 6 1 0 12 -7 28 -16 35
-16 12 -17 12 -7 -1z"/>
<path d="M5857 1614 c-6 -10 9 -42 16 -34 3 3 1 14 -3 24 -3 11 -9 15 -13 10z"/>
<path d="M5773 1583 c9 -2 25 -2 35 0 9 3 1 5 -18 5 -19 0 -27 -2 -17 -5z"/>
<path d="M5860 1541 c0 -17 5 -33 10 -36 7 -4 10 6 8 29 -3 43 -18 49 -18 7z"/>
<path d="M5803 1513 c9 -2 23 -2 30 0 6 3 -1 5 -18 5 -16 0 -22 -2 -12 -5z"/>
</g>
</svg>
